<svg width="70" height="70" viewBox="0 0 70 70" fill="none" xmlns="http://www.w3.org/2000/svg">
<path d="M60.3748 6.30005H9.6248C8.74319 6.30079 7.89789 6.65134 7.27449 7.27474C6.6511 7.89814 6.30055 8.74343 6.2998 9.62505V60.3751C6.30055 61.2567 6.6511 62.102 7.27449 62.7254C7.89789 63.3488 8.74319 63.6993 9.6248 63.7001H60.3748C61.2564 63.6993 62.1017 63.3488 62.7251 62.7254C63.3485 62.102 63.6991 61.2567 63.6998 60.3751V9.62505C63.6991 8.74343 63.3485 7.89814 62.7251 7.27474C62.1017 6.65134 61.2564 6.30079 60.3748 6.30005ZM62.2998 60.3751C62.2991 60.8854 62.096 61.3746 61.7352 61.7354C61.3743 62.0963 60.8851 62.2993 60.3748 62.3001H9.6248C9.11449 62.2993 8.62529 62.0963 8.26444 61.7354C7.9036 61.3746 7.70055 60.8854 7.6998 60.3751V9.62505C7.70055 9.11473 7.9036 8.62553 8.26444 8.26469C8.62529 7.90384 9.11449 7.70079 9.6248 7.70005H60.3748C60.8851 7.70079 61.3743 7.90384 61.7352 8.26469C62.096 8.62553 62.2991 9.11473 62.2998 9.62505V60.3751Z" fill="#231F20"/>
<path d="M55.9998 55.3H55.4748V16.8C55.4748 15.8718 55.1061 14.9816 54.4497 14.3252C53.7933 13.6688 52.9031 13.3 51.9748 13.3H49.6998C48.7715 13.3 47.8813 13.6688 47.2249 14.3252C46.5686 14.9816 46.1998 15.8718 46.1998 16.8V55.3H39.7276V30.8C39.7276 29.8718 39.3589 28.9816 38.7025 28.3252C38.0461 27.6688 37.1559 27.3 36.2276 27.3H33.9526C33.0243 27.3 32.1341 27.6688 31.4777 28.3252C30.8214 28.9816 30.4526 29.8718 30.4526 30.8V55.3H23.9804V44.8C23.9804 43.8718 23.6117 42.9816 22.9553 42.3252C22.2989 41.6688 21.4087 41.3 20.4804 41.3H18.1998C17.2715 41.3 16.3813 41.6688 15.7249 42.3252C15.0686 42.9816 14.6998 43.8718 14.6998 44.8V55.3H13.9998C13.8142 55.3 13.6361 55.3738 13.5048 55.5051C13.3736 55.6363 13.2998 55.8144 13.2998 56C13.2998 56.1857 13.3736 56.3637 13.5048 56.495C13.6361 56.6263 13.8142 56.7 13.9998 56.7H55.9998C56.1855 56.7 56.3635 56.6263 56.4948 56.495C56.6261 56.3637 56.6998 56.1857 56.6998 56C56.6998 55.8144 56.6261 55.6363 56.4948 55.5051C56.3635 55.3738 56.1855 55.3 55.9998 55.3Z" fill="#231F20"/>
<path d="M47.5996 16.8C47.5996 16.243 47.8209 15.7089 48.2147 15.315C48.6085 14.9212 49.1427 14.7 49.6996 14.7H51.9746C52.5316 14.7 53.0657 14.9212 53.4595 15.315C53.8534 15.7089 54.0746 16.243 54.0746 16.8V55.3H47.5996V16.8Z" fill="#00A1D3"/>
<path d="M31.8525 30.8C31.8525 30.243 32.0738 29.7089 32.4676 29.315C32.8614 28.9212 33.3956 28.7 33.9525 28.7H36.2275C36.7845 28.7 37.3186 28.9212 37.7125 29.315C38.1063 29.7089 38.3275 30.243 38.3275 30.8V55.3H31.8525V30.8Z" fill="#FF8E5A"/>
<path d="M16.0996 44.8C16.0996 44.243 16.3209 43.7089 16.7147 43.315C17.1085 42.9212 17.6427 42.7 18.1996 42.7H20.4746C21.0316 42.7 21.5657 42.9212 21.9595 43.315C22.3534 43.7089 22.5746 44.243 22.5746 44.8V55.3H16.0996V44.8Z" fill="#FFBA50"/>
<path d="M13.9998 14.7H23.2216C23.4073 14.7 23.5853 14.6263 23.7166 14.495C23.8479 14.3637 23.9216 14.1857 23.9216 14C23.9216 13.8144 23.8479 13.6363 23.7166 13.5051C23.5853 13.3738 23.4073 13.3 23.2216 13.3H13.9998C13.8142 13.3 13.6361 13.3738 13.5048 13.5051C13.3736 13.6363 13.2998 13.8144 13.2998 14C13.2998 14.1857 13.3736 14.3637 13.5048 14.495C13.6361 14.6263 13.8142 14.7 13.9998 14.7Z" fill="#231F20"/>
<path d="M13.9998 18.781H23.2216C23.4073 18.781 23.5853 18.7072 23.7166 18.576C23.8479 18.4447 23.9216 18.2666 23.9216 18.081C23.9216 17.8953 23.8479 17.7173 23.7166 17.586C23.5853 17.4547 23.4073 17.381 23.2216 17.381H13.9998C13.8142 17.381 13.6361 17.4547 13.5048 17.586C13.3736 17.7173 13.2998 17.8953 13.2998 18.081C13.2998 18.2666 13.3736 18.4447 13.5048 18.576C13.6361 18.7072 13.8142 18.781 13.9998 18.781Z" fill="#231F20"/>
<path d="M13.9998 22.8634H23.2216C23.4073 22.8634 23.5853 22.7896 23.7166 22.6584C23.8479 22.5271 23.9216 22.349 23.9216 22.1634C23.9216 21.9777 23.8479 21.7997 23.7166 21.6684C23.5853 21.5371 23.4073 21.4634 23.2216 21.4634H13.9998C13.8142 21.4634 13.6361 21.5371 13.5048 21.6684C13.3736 21.7997 13.2998 21.9777 13.2998 22.1634C13.2998 22.349 13.3736 22.5271 13.5048 22.6584C13.6361 22.7896 13.8142 22.8634 13.9998 22.8634Z" fill="#231F20"/>
</svg>
