<svg width="38" height="38" viewBox="0 0 38 38" fill="none" xmlns="http://www.w3.org/2000/svg">
<g clip-path="url(#clip0_1347_887)">
<path d="M7.79639 6.32935H4.25172C3.93107 6.32935 3.67578 6.58467 3.67578 6.90531V10.1116C3.67578 10.4322 3.93107 10.6875 4.25172 10.6875H7.79639C8.11704 10.6875 8.37236 10.4322 8.37236 10.1116V6.90531C8.37236 6.59063 8.11704 6.32935 7.79639 6.32935ZM7.22047 9.54156H4.82764V7.48124H7.22047V9.54156ZM7.79639 13.3237H4.25172C3.93107 13.3237 3.67578 13.5791 3.67578 13.8997V17.1059C3.67578 17.4266 3.93107 17.6818 4.25172 17.6818H7.79639C8.11704 17.6818 8.37236 17.4266 8.37236 17.1059V13.8997C8.37236 13.585 8.11704 13.3237 7.79639 13.3237ZM7.22047 16.53H4.82764V14.4697H7.22047V16.53ZM7.79639 20.3181H4.25172C3.93107 20.3181 3.67578 20.5793 3.67578 20.8941V24.1062C3.67578 24.4209 3.93107 24.6822 4.25172 24.6822H7.79639C8.11704 24.6822 8.37236 24.4209 8.37236 24.1062V20.8941C8.37236 20.5734 8.11704 20.3181 7.79639 20.3181ZM7.22047 23.5303H4.82764V21.47H7.22047V23.5303ZM7.79639 27.3066H4.25172C3.93107 27.3066 3.67578 27.5618 3.67578 27.8825V31.0887C3.67578 31.4093 3.93107 31.6647 4.25172 31.6647H7.79639C8.11704 31.6647 8.37236 31.4093 8.37236 31.0887V27.8825C8.37236 27.5618 8.11704 27.3066 7.79639 27.3066ZM7.22047 30.5187H4.82764V28.4643H7.22047V30.5187Z" fill="white"/>
<path d="M37.4241 0.944092H33.7487C33.4341 0.944092 33.1728 1.1994 33.1728 1.52003V2.55315H30.78V1.52003C30.78 1.1994 30.5187 0.944092 30.2041 0.944092H26.5287C26.2081 0.944092 25.9528 1.1994 25.9528 1.52003V7.93846H12.0531V1.52003C12.0531 1.1994 11.7919 0.944092 11.4772 0.944092H7.80189C7.48125 0.944092 7.22593 1.1994 7.22593 1.52003V2.55315H4.82718V1.52003C4.82718 1.1994 4.57186 0.944092 4.25125 0.944092H0.575939C0.26125 0.944092 0 1.1994 0 1.52003V36.486C0 36.8007 0.26125 37.0619 0.575939 37.0619H4.25125C4.57186 37.0619 4.82718 36.8007 4.82718 36.486V35.4588H7.22593V36.486C7.22593 36.8007 7.48125 37.0619 7.80189 37.0619H11.4772C11.7919 37.0619 12.0531 36.8007 12.0531 36.486V30.0616H25.9528V36.48C25.9528 36.7947 26.2081 37.056 26.5287 37.056H30.2041C30.5187 37.056 30.78 36.7947 30.78 36.48V35.4528H33.1728V36.48C33.1728 36.7947 33.4341 37.056 33.7487 37.056H37.4241C37.7447 37.056 38 36.7947 38 36.48V1.52003C38 1.1994 37.7447 0.944092 37.4241 0.944092ZM10.9012 35.9041H8.37782V34.8769C8.37782 34.5563 8.11657 34.301 7.80189 34.301H4.25125C3.93657 34.301 3.67531 34.5563 3.67531 34.8769V35.9041H1.15188V2.09596H3.67531V3.12909C3.67531 3.44378 3.93657 3.70503 4.25125 3.70503H7.80189C8.11657 3.70503 8.37782 3.44378 8.37782 3.12909V2.09596H10.9012V35.9041ZM25.9528 28.9097H12.0531V9.09035H25.9528V28.9097ZM36.8481 35.9041H34.3247V34.8769C34.3247 34.5563 34.0694 34.301 33.7487 34.301H30.2041C29.8834 34.301 29.6281 34.5563 29.6281 34.8769V35.9041H27.1047V2.09596H29.6281V3.12909C29.6281 3.44378 29.8834 3.70503 30.2041 3.70503H33.7487C34.0694 3.70503 34.3247 3.44378 34.3247 3.12909V2.09596H36.8481V35.9041Z" fill="white"/>
<path d="M8.37829 2.09595V3.12908C8.37829 3.44376 8.11704 3.70501 7.80236 3.70501H4.25172C3.93704 3.70501 3.67578 3.44376 3.67578 3.12908V2.09595H1.15234V35.91H3.67578V34.8828C3.67578 34.5622 3.93704 34.3069 4.25172 34.3069H7.80236C8.11704 34.3069 8.37829 34.5622 8.37829 34.8828V35.91H10.9017V2.09595H8.37829ZM8.37233 31.0947C8.37233 31.4153 8.11704 31.6707 7.7964 31.6707H4.25172C3.93107 31.6707 3.67578 31.4153 3.67578 31.0947V27.8884C3.67578 27.5678 3.93107 27.3125 4.25172 27.3125H7.7964C8.11704 27.3125 8.37233 27.5678 8.37233 27.8884V31.0947ZM8.37233 24.1063C8.37233 24.4209 8.11704 24.6822 7.7964 24.6822H4.25172C3.93107 24.6822 3.67578 24.4209 3.67578 24.1063V20.8941C3.67578 20.5794 3.93107 20.3182 4.25172 20.3182H7.7964C8.11704 20.3182 8.37233 20.5794 8.37233 20.8941V24.1063ZM8.37233 17.1119C8.37233 17.4325 8.11704 17.6878 7.7964 17.6878H4.25172C3.93107 17.6878 3.67578 17.4325 3.67578 17.1119V13.9056C3.67578 13.585 3.93107 13.3297 4.25172 13.3297H7.7964C8.11704 13.3297 8.37233 13.585 8.37233 13.9056V17.1119ZM8.37233 10.1116C8.37233 10.4322 8.11704 10.6875 7.7964 10.6875H4.25172C3.93107 10.6875 3.67578 10.4322 3.67578 10.1116V6.90533C3.67578 6.58469 3.93107 6.32941 4.25172 6.32941H7.7964C8.11704 6.32941 8.37233 6.58469 8.37233 6.90533V10.1116Z" fill="#EDEDED"/>
<path d="M7.21997 7.48126H4.82715V9.53562H7.21997V7.48126Z" fill="black"/>
<path d="M7.21997 14.4756H4.82715V16.5359H7.21997V14.4756Z" fill="black"/>
<path d="M7.21997 21.4641H4.82715V23.5243H7.21997V21.4641Z" fill="black"/>
<path d="M7.21997 28.4644H4.82715V30.5188H7.21997V28.4644Z" fill="black"/>
<path d="M34.3245 2.09595V3.12908C34.3245 3.44376 34.0692 3.70501 33.7486 3.70501H30.2039C29.8832 3.70501 29.628 3.44376 29.628 3.12908V2.09595H27.1045V35.91H29.628V34.8828C29.628 34.5622 29.8832 34.3069 30.2039 34.3069H33.7486C34.0692 34.3069 34.3245 34.5622 34.3245 34.8828V35.91H36.8479V2.09595H34.3245ZM34.3245 31.0947C34.3245 31.4153 34.0632 31.6707 33.7486 31.6707H30.1979C29.8832 31.6707 29.622 31.4153 29.622 31.0947V27.8884C29.622 27.5678 29.8832 27.3125 30.1979 27.3125H33.7486C34.0632 27.3125 34.3245 27.5678 34.3245 27.8884V31.0947ZM34.3245 24.1063C34.3245 24.4209 34.0632 24.6822 33.7486 24.6822H30.1979C29.8832 24.6822 29.622 24.4209 29.622 24.1063V20.8941C29.622 20.5794 29.8832 20.3182 30.1979 20.3182H33.7486C34.0632 20.3182 34.3245 20.5794 34.3245 20.8941V24.1063ZM34.3245 17.1119C34.3245 17.4325 34.0632 17.6878 33.7486 17.6878H30.1979C29.8832 17.6878 29.622 17.4325 29.622 17.1119V13.9056C29.622 13.585 29.8832 13.3297 30.1979 13.3297H33.7486C34.0632 13.3297 34.3245 13.585 34.3245 13.9056V17.1119ZM34.3245 10.1116C34.3245 10.4322 34.0632 10.6875 33.7486 10.6875H30.1979C29.8832 10.6875 29.622 10.4322 29.622 10.1116V6.90533C29.622 6.58469 29.8832 6.32941 30.1979 6.32941H33.7486C34.0632 6.32941 34.3245 6.58469 34.3245 6.90533V10.1116Z" fill="#EDEDED"/>
<path d="M33.7486 6.32935H30.198C29.8833 6.32935 29.6221 6.58467 29.6221 6.90531V10.1116C29.6221 10.4322 29.8833 10.6875 30.198 10.6875H33.7486C34.0633 10.6875 34.3246 10.4322 34.3246 10.1116V6.90531C34.3246 6.59063 34.0633 6.32935 33.7486 6.32935ZM33.1727 9.54156H30.774V7.48124H33.1727V9.54156Z" fill="white"/>
<path d="M33.1732 7.48126H30.7744V9.53562H33.1732V7.48126Z" fill="black"/>
<path d="M33.7486 13.3237H30.198C29.8833 13.3237 29.6221 13.5791 29.6221 13.8997V17.1059C29.6221 17.4266 29.8833 17.6819 30.198 17.6819H33.7486C34.0633 17.6819 34.3246 17.4266 34.3246 17.1059V13.8997C34.3246 13.585 34.0633 13.3237 33.7486 13.3237ZM33.1727 16.53H30.774V14.4697H33.1727V16.53Z" fill="white"/>
<path d="M33.1732 14.4756H30.7744V16.5359H33.1732V14.4756Z" fill="black"/>
<path d="M33.7486 20.3181H30.198C29.8833 20.3181 29.6221 20.5793 29.6221 20.894V24.1062C29.6221 24.4209 29.8833 24.6822 30.198 24.6822H33.7486C34.0633 24.6822 34.3246 24.4209 34.3246 24.1062V20.894C34.3246 20.5734 34.0633 20.3181 33.7486 20.3181ZM33.1727 23.5303H30.774V21.47H33.1727V23.5303Z" fill="white"/>
<path d="M33.1732 21.4641H30.7744V23.5243H33.1732V21.4641Z" fill="black"/>
<path d="M33.7486 27.3066H30.198C29.8833 27.3066 29.6221 27.5619 29.6221 27.8825V31.0888C29.6221 31.4094 29.8833 31.6647 30.198 31.6647H33.7486C34.0633 31.6647 34.3246 31.4094 34.3246 31.0888V27.8825C34.3246 27.5619 34.0633 27.3066 33.7486 27.3066ZM33.1727 30.5188H30.774V28.4644H33.1727V30.5188Z" fill="white"/>
<path d="M33.1732 28.4644H30.7744V30.5188H33.1732V28.4644Z" fill="black"/>
</g>
<defs>
<clipPath id="clip0_1347_887">
<rect width="38" height="38" fill="white"/>
</clipPath>
</defs>
</svg>
