<svg width="50" height="52" viewBox="0 0 50 52" fill="none" xmlns="http://www.w3.org/2000/svg">
<g clip-path="url(#clip0_1291_1205)">
<mask id="mask0_1291_1205" style="mask-type:luminance" maskUnits="userSpaceOnUse" x="0" y="0" width="46" height="46">
<path d="M46 0H0V46H46V0Z" fill="white"/>
</mask>
<g mask="url(#mask0_1291_1205)">
<path d="M45.2658 0.733124V45.2651H42.3296L35.4785 22.9991L42.3296 0.733124H45.2658Z" fill="#EEEEEE"/>
<path d="M42.3302 0.733124H0.734375V45.2651H42.3302V0.733124Z" fill="white"/>
<path d="M42.33 3.67102V6.60721H39.3938L36.7695 5.13908L39.3938 3.67102H42.33Z" fill="#676767"/>
<path d="M39.3933 3.67102H3.66992V6.60721H39.3933V3.67102Z" fill="#4F4F4F"/>
<path d="M42.33 32.2162V42.3296H39.3938L36.7695 37.2728L39.3938 32.2162H42.33Z" fill="#383838"/>
<path d="M39.3933 32.2162H3.66992V42.3293H39.3933V32.2162Z" fill="#414141"/>
<path d="M28.4647 21.2054H17.5358C17.1303 21.2054 16.8018 20.8769 16.8018 20.4714V9.54228C16.8018 9.13684 17.1303 8.80826 17.5358 8.80826H28.4648C28.8703 8.80826 29.1989 9.13684 29.1989 9.54228V20.4714C29.1989 20.8769 28.8703 21.2054 28.4647 21.2054ZM18.2698 19.7373H27.7307V10.2763H18.2698V19.7373Z" fill="#0D0D0D"/>
<path d="M28.4648 21.2054C28.2769 21.2054 28.0891 21.1338 27.9457 20.9905L17.0168 10.0614C16.7301 9.77459 16.7301 9.30994 17.0168 9.02322C17.3037 8.73655 17.7683 8.73674 18.0549 9.02322L28.984 19.9524C29.2707 20.2391 29.2707 20.7038 28.984 20.9905C28.8406 21.1337 28.6527 21.2054 28.4648 21.2054Z" fill="#0D0D0D"/>
<path d="M17.5359 21.2055C17.3481 21.2055 17.1602 21.1339 17.0168 20.9906C16.7301 20.7038 16.7301 20.2391 17.0168 19.9525L27.9458 9.02322C28.2326 8.73664 28.6973 8.73664 28.984 9.02322C29.2707 9.31003 29.2707 9.77468 28.984 10.0614L18.055 20.9905C17.9116 21.1338 17.7237 21.2055 17.5359 21.2055Z" fill="#0D0D0D"/>
<path d="M42.3302 21.2054H31.401C30.9956 21.2054 30.667 20.8769 30.667 20.4714V9.54228C30.667 9.13684 30.9956 8.80826 31.401 8.80826H42.3302C42.7356 8.80826 43.0642 9.13684 43.0642 9.54228V20.4714C43.0642 20.8769 42.7356 21.2054 42.3302 21.2054ZM32.135 19.7373H41.596V10.2763H32.135V19.7373Z" fill="#0D0D0D"/>
<path d="M42.3302 21.2054C42.1425 21.2054 41.9545 21.1338 41.8111 20.9905L30.882 10.0614C30.5953 9.77459 30.5953 9.30994 30.882 9.02322C31.1688 8.73664 31.6335 8.73664 31.9202 9.02322L42.8493 19.9524C43.136 20.2391 43.136 20.7038 42.8493 20.9905C42.706 21.1337 42.518 21.2054 42.3302 21.2054Z" fill="#0D0D0D"/>
<path d="M31.4011 21.2055C31.2133 21.2055 31.0254 21.1339 30.882 20.9906C30.5953 20.7038 30.5953 20.2391 30.882 19.9525L41.8111 9.02322C42.0979 8.73664 42.5626 8.73664 42.8493 9.02322C43.136 9.31003 43.136 9.77468 42.8493 10.0614L31.9203 20.9905C31.7768 21.1338 31.589 21.2055 31.4011 21.2055Z" fill="#0D0D0D"/>
<path d="M14.5997 21.2054H3.67055C3.26508 21.2054 2.93652 20.8769 2.93652 20.4714V9.54228C2.93652 9.13684 3.26508 8.80826 3.67055 8.80826H14.5997C15.0051 8.80826 15.3337 9.13684 15.3337 9.54228V20.4714C15.3337 20.8769 15.0051 21.2054 14.5997 21.2054ZM4.40457 19.7373H13.8656V10.2763H4.40457V19.7373Z" fill="#0D0D0D"/>
<path d="M14.5998 21.2054C14.412 21.2054 14.224 21.1338 14.0807 20.9905L3.15154 10.0614C2.86485 9.77459 2.86485 9.30994 3.15154 9.02322C3.43832 8.73664 3.903 8.73664 4.18969 9.02322L15.1188 19.9524C15.4055 20.2391 15.4055 20.7038 15.1188 20.9905C14.9755 21.1337 14.7875 21.2054 14.5998 21.2054Z" fill="#0D0D0D"/>
<path d="M3.67066 21.2055C3.48289 21.2055 3.29493 21.1339 3.15154 20.9906C2.86485 20.7038 2.86485 20.2391 3.15154 19.9525L14.0807 9.02322C14.3675 8.73664 14.8321 8.73664 15.1188 9.02322C15.4055 9.31003 15.4055 9.77468 15.1188 10.0614L4.18978 20.9905C4.04639 21.1338 3.85852 21.2055 3.67066 21.2055Z" fill="#0D0D0D"/>
<path d="M45.266 0H0.734022C0.328559 0 0 0.328559 0 0.734022V45.266C0 45.6714 0.328559 46 0.734022 46H45.266C45.6714 46 46 45.6714 46 45.266V0.734022C46 0.328559 45.6714 0 45.266 0ZM44.532 44.532H1.46805V1.46805H44.532V44.532Z" fill="black"/>
<path d="M3.67055 7.34032H42.3301C42.7356 7.34032 43.0642 7.01178 43.0642 6.60629V3.67012C43.0642 3.26466 42.7356 2.9361 42.3301 2.9361H3.67055C3.26508 2.9361 2.93652 3.26466 2.93652 3.67012V6.60629C2.93652 7.01178 3.26508 7.34032 3.67055 7.34032ZM4.40457 4.40414H41.596V5.87218H4.40457V4.40414Z" fill="black"/>
<path d="M3.67055 43.0645H42.3301C42.7356 43.0645 43.0642 42.736 43.0642 42.3305V32.2171C43.0642 31.8116 42.7356 31.483 42.3301 31.483H3.67055C3.26508 31.483 2.93652 31.8116 2.93652 32.2171V42.3305C2.93652 42.736 3.26508 43.0645 3.67055 43.0645ZM4.40457 32.9511H41.596V41.5965H4.40457V32.9511Z" fill="black"/>
<path d="M28.4647 22.673H17.5358C17.1303 22.673 16.8018 23.0015 16.8018 23.407C16.8018 23.8124 17.1303 24.141 17.5358 24.141H28.4648C28.8703 24.141 29.1989 23.8124 29.1989 23.407C29.1989 23.0015 28.8703 22.673 28.4647 22.673Z" fill="black"/>
<path d="M42.3302 22.673H31.401C30.9956 22.673 30.667 23.0015 30.667 23.407C30.667 23.8124 30.9956 24.141 31.401 24.141H42.3302C42.7356 24.141 43.0642 23.8124 43.0642 23.407C43.0642 23.0015 42.7356 22.673 42.3302 22.673Z" fill="black"/>
<path d="M3.67055 24.141H14.5997C15.0051 24.141 15.3337 23.8124 15.3337 23.407C15.3337 23.0015 15.0051 22.673 14.5997 22.673H3.67055C3.26508 22.673 2.93652 23.0015 2.93652 23.407C2.93652 23.8124 3.26508 24.141 3.67055 24.141Z" fill="black"/>
<path d="M29.1989 26.3431C29.1989 25.9376 28.8703 25.6091 28.4648 25.6091H17.5358C17.1303 25.6091 16.8018 25.9376 16.8018 26.3431C16.8018 26.7485 17.1303 27.0771 17.5358 27.0771H28.4648C28.8703 27.0771 29.1989 26.7485 29.1989 26.3431Z" fill="black"/>
<path d="M43.0642 26.3431C43.0642 25.9376 42.7356 25.6091 42.3302 25.6091H31.401C30.9956 25.6091 30.667 25.9376 30.667 26.3431C30.667 26.7485 30.9956 27.0771 31.401 27.0771H42.3302C42.7356 27.0771 43.0642 26.7485 43.0642 26.3431Z" fill="black"/>
<path d="M3.67055 27.0771H14.5997C15.0051 27.0771 15.3337 26.7485 15.3337 26.3431C15.3337 25.9376 15.0051 25.6091 14.5997 25.6091H3.67055C3.26508 25.6091 2.93652 25.9376 2.93652 26.3431C2.93652 26.7485 3.26508 27.0771 3.67055 27.0771Z" fill="black"/>
<path d="M17.5358 28.547C17.1303 28.547 16.8018 28.8755 16.8018 29.281C16.8018 29.6864 17.1303 30.015 17.5358 30.015H23.0166C23.4221 30.015 23.7507 29.6864 23.7507 29.281C23.7507 28.8755 23.4221 28.547 23.0166 28.547H17.5358Z" fill="black"/>
<path d="M31.401 28.547C30.9956 28.547 30.667 28.8755 30.667 29.281C30.667 29.6864 30.9956 30.015 31.401 30.015H36.8818C37.2873 30.015 37.6159 29.6864 37.6159 29.281C37.6159 28.8755 37.2873 28.547 36.8818 28.547H31.401Z" fill="black"/>
<path d="M3.67055 30.015H9.15139C9.55684 30.015 9.88542 29.6864 9.88542 29.281C9.88542 28.8755 9.55684 28.547 9.15139 28.547H3.67055C3.26508 28.547 2.93652 28.8755 2.93652 29.281C2.93652 29.6864 3.26508 30.015 3.67055 30.015Z" fill="black"/>
</g>
</g>
<defs>
<clipPath id="clip0_1291_1205">
<rect width="46" height="46" fill="white"/>
</clipPath>
</defs>
</svg>
