<svg width="70" height="70" viewBox="0 0 70 70" fill="none" xmlns="http://www.w3.org/2000/svg">
<path d="M53.2178 42.2569V66.4469C53.2178 67.156 52.6418 67.732 51.9327 67.732H39.8378C39.1286 67.732 38.5527 67.1559 38.5527 66.4469V42.2569C38.5527 41.5478 39.1288 40.9718 39.8378 40.9718H44.7514V45.5665L43.0581 43.8747C42.615 43.4316 41.8985 43.4316 41.4555 43.8747C41.0123 44.3177 41.0123 45.0344 41.4555 45.4772L45.084 49.1057C45.0855 49.1072 45.087 49.1087 45.0885 49.1102C45.1126 49.1345 45.1399 49.1585 45.167 49.1812C45.1791 49.1918 45.1928 49.201 45.2064 49.21C45.2229 49.2236 45.2381 49.2357 45.2563 49.2478C45.2716 49.2583 45.2865 49.2675 45.3034 49.2765C45.3198 49.2855 45.3351 49.2962 45.3516 49.3037C45.3669 49.3128 45.3833 49.3203 45.4 49.3279C45.4182 49.337 45.4346 49.3445 45.4514 49.3522C45.468 49.3582 45.4848 49.3642 45.5014 49.3704C45.5196 49.3765 45.5377 49.3839 45.5559 49.3901C45.5723 49.3946 45.5891 49.3977 45.6073 49.4021C45.6255 49.4067 45.6451 49.4127 45.6649 49.4157C45.6831 49.4202 45.7026 49.4232 45.7223 49.4247C45.7405 49.4278 45.7571 49.4308 45.7738 49.4322C45.8116 49.4368 45.8479 49.4383 45.8856 49.4383C45.9234 49.4383 45.9596 49.4368 45.9974 49.4322C46.0138 49.4308 46.0307 49.4278 46.0489 49.4247C46.0686 49.4232 46.0882 49.4202 46.1064 49.4157C46.1261 49.4127 46.1456 49.4067 46.1638 49.4021C46.182 49.3977 46.1986 49.3946 46.2154 49.3901C46.2336 49.3841 46.2516 49.3765 46.2698 49.3704C46.2863 49.3643 46.3031 49.3583 46.3197 49.3522C46.3365 49.3447 46.353 49.3371 46.3712 49.3279C46.3878 49.3205 46.4045 49.3129 46.4195 49.3037C46.4359 49.2962 46.4513 49.2855 46.4677 49.2765C46.4843 49.2675 46.4995 49.2583 46.5148 49.2478C46.533 49.2357 46.5481 49.2236 46.5647 49.21C46.5783 49.201 46.592 49.1918 46.604 49.1812C46.6312 49.1585 46.6585 49.1345 46.6826 49.1102C46.6842 49.1087 46.6858 49.1072 46.6871 49.1057L50.3155 45.4772C50.7587 45.0342 50.7587 44.3176 50.3155 43.8747C49.8725 43.4316 49.1559 43.4316 48.713 43.8747L47.0197 45.5665V40.9718H51.9333C52.6418 40.9719 53.2178 41.5479 53.2178 42.2569ZM49.4381 54.352C49.4381 52.3927 47.8446 50.7991 45.8852 50.7991C43.9258 50.7991 42.3323 52.3927 42.3323 54.352C42.3323 56.3114 43.9258 57.905 45.8852 57.905C47.8446 57.905 49.4381 56.3114 49.4381 54.352Z" fill="black"/>
<path d="M31.4473 42.2569V66.4469C31.4473 67.156 30.8713 67.732 30.1623 67.732H18.0673C17.3582 67.732 16.7822 67.1559 16.7822 66.4469V42.2569C16.7822 41.5478 17.3583 40.9718 18.0673 40.9718H22.9809V45.5665L21.2876 43.8747C20.8445 43.4316 20.1279 43.4316 19.6851 43.8747C19.2419 44.3177 19.2419 45.0344 19.6851 45.4772L23.3135 49.1057C23.315 49.1072 23.3165 49.1087 23.318 49.1102C23.3421 49.1345 23.3695 49.1585 23.3966 49.1812C23.4086 49.1918 23.4223 49.201 23.4359 49.21C23.4525 49.2236 23.4676 49.2357 23.4858 49.2478C23.5012 49.2583 23.5161 49.2675 23.5329 49.2765C23.5493 49.2855 23.5647 49.2962 23.581 49.3037C23.5964 49.3128 23.6128 49.3203 23.6296 49.3279C23.6478 49.337 23.6643 49.3445 23.681 49.3522C23.6977 49.3582 23.7143 49.3642 23.7309 49.3704C23.7491 49.3765 23.7672 49.3839 23.7854 49.3901C23.8018 49.3946 23.8187 49.3977 23.8369 49.4021C23.8551 49.4067 23.8746 49.4127 23.8944 49.4157C23.9126 49.4202 23.9322 49.4232 23.9518 49.4247C23.97 49.4278 23.9866 49.4308 24.0033 49.4322C24.0411 49.4368 24.0773 49.4383 24.1151 49.4383C24.1529 49.4383 24.1891 49.4368 24.2269 49.4322C24.2434 49.4308 24.2602 49.4278 24.2784 49.4247C24.2981 49.4232 24.3177 49.4202 24.3359 49.4157C24.3556 49.4127 24.3752 49.4067 24.3934 49.4021C24.4116 49.3977 24.4281 49.3946 24.4448 49.3901C24.463 49.3841 24.4811 49.3765 24.4993 49.3704C24.516 49.3643 24.5326 49.3583 24.5493 49.3522C24.5659 49.3447 24.5825 49.3371 24.6007 49.3279C24.6174 49.3205 24.634 49.3129 24.649 49.3037C24.6655 49.2962 24.6808 49.2855 24.6972 49.2765C24.7139 49.2675 24.729 49.2583 24.7443 49.2478C24.7625 49.2357 24.7776 49.2236 24.7943 49.21C24.8078 49.201 24.8215 49.1918 24.8336 49.1812C24.8608 49.1585 24.888 49.1345 24.9121 49.1102C24.9138 49.1087 24.9151 49.1072 24.9166 49.1057L28.5451 45.4772C28.9883 45.0342 28.9883 44.3176 28.5451 43.8747C28.1021 43.4316 27.3854 43.4316 26.9425 43.8747L25.2492 45.5665V40.9718H30.1629C30.8714 40.9719 31.4473 41.5479 31.4473 42.2569ZM27.6676 54.352C27.6676 52.3927 26.0741 50.7991 24.1147 50.7991C22.1554 50.7991 20.5618 52.3927 20.5618 54.352C20.5618 56.3114 22.1554 57.905 24.1147 57.905C26.0742 57.905 27.6676 56.3114 27.6676 54.352Z" fill="black"/>
<path d="M31.4474 3.55182V14.5129H27.4818C27.007 13.1084 25.6781 12.0939 24.1149 12.0939C22.1555 12.0939 20.5619 13.6874 20.5619 15.6468C20.5619 17.2101 21.5764 18.5391 22.9809 19.0137V29.0269H18.0673C17.3582 29.0269 16.7822 28.4508 16.7822 27.7418V3.55182C16.7822 2.84272 17.3583 2.26678 18.0673 2.26678H30.1623C30.8715 2.26678 31.4474 2.84272 31.4474 3.55182Z" fill="black"/>
<path d="M53.2179 3.55182V27.7418C53.2179 28.4509 52.6418 29.0269 51.9329 29.0269H47.0193V19.0137C48.4238 18.5389 49.4382 17.2101 49.4382 15.6468C49.4382 13.6874 47.8447 12.0939 45.8853 12.0939C43.9259 12.0939 42.3325 13.6874 42.3325 15.6468C42.3325 17.2101 43.3469 18.5391 44.7514 19.0137V29.0269H39.8377C39.1286 29.0269 38.5527 28.4508 38.5527 27.7418V18.5361L40.6391 16.4482C41.0823 16.0051 41.0823 15.2885 40.6391 14.8456L38.5527 12.7576V3.55182C38.5527 2.84272 39.1288 2.26678 39.8377 2.26678H51.9327C52.642 2.26678 53.2179 2.84272 53.2179 3.55182Z" fill="black"/>
<path d="M45.8856 14.3636C46.5947 14.3636 47.1707 14.9397 47.1707 15.6487C47.1707 16.3577 46.5946 16.9338 45.8856 16.9338C45.1767 16.9338 44.6006 16.3577 44.6006 15.6487C44.6006 14.9397 45.1767 14.3636 45.8856 14.3636Z" fill="black"/>
<path d="M55.4857 42.2569V66.4469C55.4857 68.4063 53.8922 69.9999 51.9327 69.9999H39.8378C37.8783 69.9999 36.2849 68.4063 36.2849 66.4469V42.2569C36.2849 40.2975 37.8783 38.704 39.8378 38.704H44.7514V31.2959H39.8378C37.8783 31.2959 36.2849 29.7023 36.2849 27.743V20.4073C36.2591 20.4088 36.2349 20.4103 36.2093 20.4103C35.919 20.4103 35.6287 20.3 35.408 20.0778C34.9647 19.6347 34.9647 18.9181 35.408 18.4752L37.0996 16.7819H33.7145V27.743C33.7145 29.7023 32.121 31.2959 30.1616 31.2959H25.248V38.704H30.1616C32.121 38.704 33.7145 40.2975 33.7145 42.2569V66.4469C33.7145 68.4063 32.121 69.9999 30.1616 69.9999H18.0666C16.1072 69.9999 14.5137 68.4063 14.5137 66.4469V42.2569C14.5137 40.2975 16.1072 38.704 18.0666 38.704H22.9802V31.2959H18.0666C16.1072 31.2959 14.5137 29.7023 14.5137 27.743V3.55291C14.5137 1.59354 16.1072 0 18.0666 0H30.1616C32.121 0 33.7145 1.59354 33.7145 3.55291V14.514H37.0996L35.408 12.8207C34.9647 12.3776 34.9647 11.661 35.408 11.2181C35.6483 10.9763 35.9704 10.8688 36.2849 10.8886V3.55291C36.2849 1.59354 37.8783 0 39.8378 0H51.9327C53.8922 0 55.4857 1.59354 55.4857 3.55291V27.743C55.4857 29.7023 53.8922 31.2959 51.9327 31.2959H47.0192V38.704H51.9327C53.8922 38.704 55.4857 40.2975 55.4857 42.2569ZM53.2178 66.4471V42.2569C53.2178 41.5478 52.6418 40.9719 51.9327 40.9719H47.0192V45.5665L48.7125 43.8747C49.1555 43.4316 49.8721 43.4316 50.315 43.8747C50.7582 44.3177 50.7582 45.0344 50.315 45.4772L46.6865 49.1057C46.685 49.1072 46.6835 49.1087 46.682 49.1102C46.658 49.1345 46.6306 49.1586 46.6035 49.1813C46.5915 49.1918 46.5777 49.201 46.5642 49.21C46.5476 49.2236 46.5324 49.2358 46.5142 49.2478C46.4989 49.2583 46.484 49.2675 46.4671 49.2765C46.4508 49.2855 46.4354 49.2962 46.419 49.3037C46.4036 49.3128 46.3872 49.3203 46.3707 49.328C46.3525 49.337 46.336 49.3445 46.3192 49.3522C46.3026 49.3583 46.2859 49.3643 46.2692 49.3704C46.251 49.3765 46.233 49.3839 46.2148 49.3901C46.1983 49.3947 46.1815 49.3977 46.1633 49.4021C46.1451 49.4067 46.1255 49.4127 46.1058 49.4157C46.0876 49.4202 46.0681 49.4232 46.0483 49.4248C46.0301 49.4278 46.0136 49.4308 45.9969 49.4323C45.9591 49.4368 45.9228 49.4383 45.8851 49.4383C45.8473 49.4383 45.811 49.4368 45.7732 49.4323C45.7568 49.4308 45.74 49.4278 45.7218 49.4248C45.702 49.4232 45.6825 49.4202 45.6643 49.4157C45.6446 49.4127 45.625 49.4067 45.6068 49.4021C45.5886 49.3977 45.572 49.3947 45.5553 49.3901C45.5371 49.3841 45.5191 49.3766 45.5009 49.3704C45.4843 49.3644 45.4676 49.3584 45.4509 49.3522C45.4344 49.3447 45.4177 49.3372 45.3994 49.328C45.3829 49.3205 45.3662 49.3129 45.3511 49.3037C45.3347 49.2962 45.3194 49.2855 45.303 49.2765C45.2864 49.2675 45.2712 49.2583 45.2559 49.2478C45.2377 49.2358 45.2226 49.2236 45.2059 49.21C45.1924 49.201 45.1787 49.1918 45.1667 49.1813C45.1394 49.1586 45.1121 49.1345 45.0881 49.1102C45.0865 49.1087 45.0849 49.1072 45.0836 49.1057L41.4551 45.4772C41.012 45.0342 41.012 44.3176 41.4551 43.8747C41.8982 43.4316 42.6148 43.4316 43.0576 43.8747L44.751 45.5665V40.9719H39.8374C39.1283 40.9719 38.5523 41.5479 38.5523 42.2569V66.4469C38.5523 67.156 39.1284 67.732 39.8374 67.732H51.9324C52.6419 67.7321 53.2178 67.156 53.2178 66.4471ZM53.2178 27.743V3.55291C53.2178 2.84381 52.6418 2.26787 51.9327 2.26787H39.8378C39.1287 2.26787 38.5527 2.84395 38.5527 3.55291V12.7587L40.6391 14.8466C41.0823 15.2896 41.0823 16.0063 40.6391 16.4492L38.5527 18.5371V27.7428C38.5527 28.4519 39.1288 29.0278 39.8378 29.0278H44.7514V19.0147C43.3469 18.5399 42.3324 17.211 42.3324 15.6478C42.3324 13.6884 43.9259 12.0949 45.8854 12.0949C47.8447 12.0949 49.4382 13.6884 49.4382 15.6478C49.4382 17.211 48.4238 18.5401 47.0193 19.0147V29.0278H51.9329C52.6419 29.0281 53.2178 28.4521 53.2178 27.743ZM47.1704 15.6479C47.1704 14.9388 46.5943 14.3629 45.8854 14.3629C45.1763 14.3629 44.6003 14.939 44.6003 15.6479C44.6003 16.3569 45.1763 16.9329 45.8854 16.9329C46.5943 16.9329 47.1704 16.357 47.1704 15.6479ZM31.4467 66.4471V42.2569C31.4467 41.5478 30.8707 40.9719 30.1618 40.9719H25.2481V45.5665L26.9414 43.8747C27.3844 43.4316 28.1011 43.4316 28.544 43.8747C28.9872 44.3177 28.9872 45.0344 28.544 45.4772L24.9155 49.1057C24.914 49.1072 24.9125 49.1087 24.911 49.1102C24.8869 49.1345 24.8595 49.1586 24.8324 49.1813C24.8204 49.1918 24.8067 49.201 24.7931 49.21C24.7764 49.2236 24.7614 49.2358 24.7432 49.2478C24.7279 49.2583 24.713 49.2675 24.6961 49.2765C24.6797 49.2855 24.6644 49.2962 24.6479 49.3037C24.6326 49.3128 24.6161 49.3203 24.5995 49.328C24.5813 49.337 24.5647 49.3445 24.548 49.3522C24.5313 49.3583 24.5148 49.3643 24.4981 49.3704C24.4799 49.3765 24.4618 49.3839 24.4436 49.3901C24.4271 49.3947 24.4103 49.3977 24.3921 49.4021C24.3739 49.4067 24.3543 49.4127 24.3346 49.4157C24.3164 49.4202 24.2969 49.4232 24.2771 49.4248C24.2589 49.4278 24.2424 49.4308 24.2257 49.4323C24.1879 49.4368 24.1516 49.4383 24.1139 49.4383C24.0761 49.4383 24.0398 49.4368 24.002 49.4323C23.9857 49.4308 23.9688 49.4278 23.9506 49.4248C23.9309 49.4232 23.9113 49.4202 23.8931 49.4157C23.8734 49.4127 23.8538 49.4067 23.8356 49.4021C23.8174 49.3977 23.8009 49.3947 23.7842 49.3901C23.7659 49.3841 23.7479 49.3766 23.7297 49.3704C23.713 49.3644 23.6964 49.3584 23.6798 49.3522C23.663 49.3447 23.6465 49.3372 23.6282 49.328C23.6116 49.3205 23.595 49.3129 23.5798 49.3037C23.5634 49.2962 23.5481 49.2855 23.5316 49.2765C23.515 49.2675 23.4999 49.2583 23.4845 49.2478C23.4663 49.2358 23.4513 49.2236 23.4346 49.21C23.421 49.201 23.4074 49.1918 23.3953 49.1813C23.3681 49.1586 23.3408 49.1345 23.3167 49.1102C23.3151 49.1087 23.3137 49.1072 23.3123 49.1057L19.6838 45.4772C19.2406 45.0342 19.2406 44.3176 19.6838 43.8747C20.1268 43.4316 20.8434 43.4316 21.2864 43.8747L22.9797 45.5665V40.9719H18.066C17.3569 40.9719 16.781 41.5479 16.781 42.2569V66.4469C16.781 67.156 17.3571 67.732 18.066 67.732H30.1611C30.8709 67.7321 31.4467 67.156 31.4467 66.4471ZM31.4467 27.743V16.7819H27.481C27.1257 17.8296 26.2958 18.6597 25.248 19.0149V29.0281H30.1616C30.8709 29.0281 31.4467 28.4521 31.4467 27.743ZM31.4467 14.514V3.55291C31.4467 2.84381 30.8707 2.26787 30.1618 2.26787H18.0667C17.3576 2.26787 16.7817 2.84395 16.7817 3.55291V27.743C16.7817 28.4521 17.3578 29.0279 18.0667 29.0279H22.9803V19.0148C21.5758 18.5401 20.5614 17.2112 20.5614 15.6479C20.5614 13.6886 22.1549 12.095 24.1143 12.095C25.6776 12.095 27.0066 13.1095 27.4812 14.514H31.4467ZM25.3993 15.6479C25.3993 14.9388 24.8233 14.3629 24.1143 14.3629C23.4053 14.3629 22.8293 14.939 22.8293 15.6479C22.8293 16.3569 23.4053 16.9329 24.1143 16.9329C24.8233 16.9329 25.3993 16.357 25.3993 15.6479Z" fill="white"/>
<path d="M45.8859 50.7992C47.8453 50.7992 49.4388 52.3927 49.4388 54.3521C49.4388 56.3115 47.8453 57.905 45.8859 57.905C43.9266 57.905 42.333 56.3115 42.333 54.3521C42.333 52.3926 43.9266 50.7992 45.8859 50.7992ZM47.1711 54.3521C47.1711 53.643 46.595 53.0671 45.8861 53.0671C45.1771 53.0671 44.601 53.6432 44.601 54.3521C44.601 55.0612 45.1771 55.6372 45.8861 55.6372C46.595 55.6372 47.1711 55.0611 47.1711 54.3521Z" fill="white"/>
<path d="M45.8856 53.066C46.5947 53.066 47.1707 53.6421 47.1707 54.3511C47.1707 55.0602 46.5946 55.6361 45.8856 55.6361C45.1767 55.6361 44.6006 55.06 44.6006 54.3511C44.6006 53.6421 45.1767 53.066 45.8856 53.066Z" fill="black"/>
<path d="M24.1144 50.7992C26.0738 50.7992 27.6674 52.3927 27.6674 54.3521C27.6674 56.3115 26.0738 57.905 24.1144 57.905C22.1551 57.905 20.5615 56.3115 20.5615 54.3521C20.5615 52.3926 22.1551 50.7992 24.1144 50.7992ZM25.3996 54.3521C25.3996 53.643 24.8235 53.0671 24.1146 53.0671C23.4056 53.0671 22.8296 53.6432 22.8296 54.3521C22.8296 55.0612 23.4056 55.6372 24.1146 55.6372C24.8235 55.6372 25.3996 55.0611 25.3996 54.3521Z" fill="white"/>
<path d="M24.1142 14.3636C24.8233 14.3636 25.3992 14.9397 25.3992 15.6487C25.3992 16.3577 24.8231 16.9338 24.1142 16.9338C23.4051 16.9338 22.8291 16.3577 22.8291 15.6487C22.8291 14.9397 23.4051 14.3636 24.1142 14.3636Z" fill="black"/>
<path d="M24.1142 53.0688C24.8233 53.0688 25.3992 53.6449 25.3992 54.3538C25.3992 55.0629 24.8231 55.6388 24.1142 55.6388C23.4051 55.6388 22.8291 55.0628 22.8291 54.3538C22.8291 53.6449 23.4051 53.0688 24.1142 53.0688Z" fill="black"/>
</svg>
