<svg width="70" height="70" viewBox="0 0 70 70" fill="none" xmlns="http://www.w3.org/2000/svg">
<g id="icon web dev" clip-path="url(#clip0_1359_7645)">
<path id="Vector" d="M67.3213 29.4538H66.0716C64.9373 23.1444 61.9188 17.336 57.2895 12.7073C51.2995 6.71679 43.3346 3.41791 34.8633 3.41791C26.3921 3.41791 18.4272 6.71679 12.4372 12.7073C7.77483 17.3697 4.74511 23.2283 3.63 29.5911H2.4054C1.0035 29.5911 -0.136719 30.7313 -0.136719 32.1332V41.3713C-0.136719 42.7727 1.0035 43.9134 2.4054 43.9134H4.38836C6.08186 49.7945 9.45871 55.1217 14.2065 59.2003C14.6364 59.5694 15.2842 59.5208 15.6538 59.0909C16.0234 58.6604 15.9742 58.0126 15.5443 57.643C14.316 56.5883 13.1864 55.4432 12.1605 54.2234C13.7296 53.5623 15.3328 53.017 16.9478 52.57C17.7147 53.9233 18.5751 55.2291 19.5295 56.4761C21.6203 59.2089 23.9814 61.6132 26.4979 63.5951C24.407 62.9825 22.3851 62.1409 20.4779 61.0808C19.9823 60.8057 19.3575 60.9841 19.0825 61.4797C18.8069 61.9753 18.9853 62.6002 19.4809 62.8757C24.1597 65.475 29.479 66.8491 34.8633 66.8491C43.3346 66.8491 51.299 63.5502 57.2895 57.5597C61.1374 53.7123 63.8713 49.0484 65.3367 43.9604H67.3213C68.7232 43.9604 69.8634 42.8202 69.8634 41.4183V31.9959C69.8634 30.5946 68.7232 29.4538 67.3213 29.4538ZM63.9818 29.4538H56.8415C56.756 28.9219 56.6615 28.39 56.5515 27.8586C55.9416 24.9143 54.9883 22.103 53.7071 19.4493C53.8961 19.3975 54.0863 19.3467 54.2742 19.2933C55.5811 18.9195 57.2447 18.4111 58.8789 17.712C61.4312 21.2159 63.1631 25.2096 63.9818 29.4538ZM54.7837 29.5911H44.1773C44.1421 29.0762 44.1036 28.5614 44.0582 28.0476C43.8548 25.7512 43.5546 23.5279 43.168 21.4018C46.1101 21.0963 48.9518 20.6183 51.6782 19.97C52.9786 22.581 53.9373 25.3592 54.5413 28.2751C54.6321 28.7131 54.7106 29.1521 54.7837 29.5911ZM55.838 14.1584C56.4425 14.7629 57.0166 15.3899 57.5619 16.0356C56.1947 16.5846 54.819 17.0022 53.7097 17.3195C53.3882 17.4113 53.0646 17.4994 52.7399 17.5859C52.091 16.4228 51.378 15.2922 50.5973 14.1984C48.5513 11.3337 46.125 8.82579 43.3549 6.69863C48.022 8.08611 52.2988 10.6192 55.838 14.1584ZM38.0287 5.63852C42.3877 8.08878 46.0546 11.369 48.9267 15.3915C49.5526 16.269 50.1321 17.1721 50.6683 18.097C48.1331 18.6754 45.4954 19.1043 42.7669 19.3804C41.5786 13.8481 39.7788 9.08267 37.5246 5.58992C37.6928 5.60434 37.861 5.62037 38.0287 5.63852ZM34.8633 5.47083C34.8885 5.47083 34.913 5.47136 34.9381 5.47136C37.4322 8.76277 39.4263 13.6793 40.7108 19.5588C38.5179 19.7168 36.2717 19.7815 33.9757 19.7478C32.4174 19.7254 30.7495 19.6768 29.0133 19.571C30.2977 13.6863 32.2929 8.7649 34.7886 5.47136C34.8137 5.47136 34.8382 5.47083 34.8633 5.47083ZM32.2021 5.58992C29.942 9.09068 28.1396 13.8705 26.9513 19.4188C24.3744 19.1945 21.6838 18.8234 18.9922 18.2103C19.5465 17.2452 20.1479 16.3042 20.8 15.391C23.6721 11.369 27.339 8.08878 31.698 5.63799C31.8657 5.62037 32.0339 5.60434 32.2021 5.58992ZM26.5507 21.4451C26.1678 23.5578 25.8703 25.7667 25.6685 28.0476C25.6231 28.5614 25.5846 29.0762 25.5499 29.5911H14.9419C15.0145 29.1521 15.0946 28.7131 15.1854 28.2751C15.7804 25.4019 16.7214 22.6632 17.9924 20.0853C20.8902 20.7807 23.7854 21.1957 26.5507 21.4451ZM13.8887 14.1584C17.4279 10.6192 21.7047 8.08611 26.3718 6.69863C23.6011 8.82579 21.1749 11.3337 19.1294 14.1984C18.3252 15.3247 17.593 16.4911 16.9291 17.6917C15.32 17.2458 13.7221 16.7015 12.1589 16.0425C12.7058 15.3947 13.282 14.7656 13.8887 14.1584ZM10.8467 17.7141C12.5269 18.4517 14.2433 19.0562 15.97 19.5524C14.7139 22.1762 13.7771 24.9522 13.1752 27.8586C13.0561 28.4354 12.9531 29.0132 12.8628 29.5911H5.71817C6.52566 25.2962 8.26776 21.2549 10.8467 17.7141ZM2.4054 41.8605C2.1357 41.8605 1.9162 41.641 1.9162 41.3708V32.1326C1.9162 31.8629 2.1357 31.6434 2.4054 31.6434H32.035C32.6021 31.6434 33.0614 31.1842 33.0614 30.617C33.0614 30.0503 32.6021 29.5905 32.035 29.5905H27.6066C27.6386 29.1366 27.6733 28.6821 27.7134 28.2287C27.9168 25.9317 28.2181 23.7148 28.6069 21.6026C30.4793 21.7228 32.2737 21.7762 33.9464 21.8002C34.3512 21.8061 34.7549 21.8093 35.1576 21.8093C37.1828 21.8093 39.17 21.7334 41.1172 21.5861C41.507 23.7031 41.8093 25.9258 42.0133 28.2287C42.0534 28.6821 42.0886 29.1366 42.1207 29.5905H38.4437C37.877 29.5905 37.4172 30.0503 37.4172 30.617C37.4172 31.1842 37.877 31.6434 38.4437 31.6434H54.365V41.86H2.4054V41.8605ZM54.1188 43.9129C53.5276 46.1196 52.7095 48.2591 51.6718 50.2949C48.9502 49.6482 46.1149 49.1691 43.1781 48.8636C43.4729 47.2588 43.7148 45.6043 43.9018 43.9134H54.1188V43.9129ZM41.8387 43.9129C41.6534 45.5434 41.4152 47.137 41.1263 48.6815C38.7892 48.5042 36.3945 48.4305 33.9464 48.4663C32.2705 48.4903 30.4729 48.5437 28.5972 48.6644C28.3099 47.1253 28.0728 45.5375 27.888 43.9129H41.8387ZM10.8531 52.5502C8.94655 49.9227 7.4875 47.0046 6.52994 43.9129H13.4898C14.0794 46.2606 14.9072 48.5405 15.9694 50.7147C14.2449 51.2103 12.5306 51.8138 10.8531 52.5502ZM15.61 43.9129H25.8233C26.0087 45.5899 26.249 47.231 26.5406 48.823C23.7795 49.0719 20.8892 49.4869 17.9967 50.1801C16.9868 48.179 16.19 46.078 15.61 43.9129ZM31.6878 64.6221C27.8474 62.4586 24.2089 59.2137 21.1599 55.2285C20.3791 54.209 19.6672 53.1462 19.02 52.0498C21.7004 51.441 24.3792 51.072 26.9454 50.8482C27.3513 52.7126 27.8325 54.4974 28.3868 56.1749C29.205 58.647 30.4894 61.9449 32.2166 64.6755C32.0403 64.66 31.8641 64.6413 31.6878 64.6221ZM34.8633 64.7962C34.8382 64.7962 34.8137 64.7951 34.7886 64.7951C33.1725 62.6541 31.6355 59.4583 30.3361 55.5303C29.8314 54.0045 29.3909 52.3852 29.0138 50.6954C30.75 50.5902 32.4174 50.5411 33.9757 50.5187C36.2717 50.4861 38.5174 50.5507 40.7102 50.7088C40.3337 52.3938 39.8937 54.0088 39.3906 55.5303C38.0917 59.4583 36.5542 62.6541 34.9381 64.7951C34.913 64.7957 34.8885 64.7962 34.8633 64.7962ZM37.508 64.6787C39.2362 61.9475 40.5217 58.6481 41.3393 56.1749C41.8905 54.5092 42.3685 52.7382 42.7722 50.8877C45.489 51.1628 48.1149 51.5884 50.6394 52.163C50.0103 53.2194 49.3203 54.2443 48.5668 55.2285C45.5146 59.2174 41.8723 62.465 38.0282 64.6285C37.8551 64.6467 37.6816 64.6632 37.508 64.6787ZM55.838 56.1081C52.2619 59.6842 47.9328 62.2327 43.2096 63.6101C45.733 61.6255 48.1011 59.2158 50.1972 56.4761C51.127 55.2617 51.9666 53.9906 52.718 52.6747C53.0502 52.7633 53.3813 52.8536 53.7097 52.947C54.8179 53.2643 56.1926 53.6819 57.5592 54.2304C57.014 54.8761 56.4425 55.5041 55.838 56.1081ZM58.8757 52.5534C57.2425 51.8554 55.58 51.347 54.2742 50.9737C54.0863 50.9198 53.8961 50.8696 53.7071 50.8177C54.7864 48.6276 55.6265 46.3279 56.2246 43.9604H63.1909C62.2381 47.0329 60.7866 49.9301 58.8757 52.5534ZM67.8105 41.3713C67.8105 41.641 67.591 41.8605 67.3213 41.8605H56.4174V31.6434H67.3213C67.591 31.6434 67.8105 31.8635 67.8105 32.1332V41.3713Z" fill="#A9AFC3"/>
<path id="Vector_2" d="M26.2142 36.3634C26.2142 36.6363 25.9792 36.8788 25.7063 36.8788C25.4105 36.8788 25.1904 36.6363 25.1904 36.3634C25.1904 36.0825 25.4105 35.8475 25.7063 35.8475C25.9792 35.8475 26.2142 36.0825 26.2142 36.3634ZM26.2142 38.5776C26.2142 38.8511 25.9792 39.0935 25.7063 39.0935C25.4105 39.0935 25.1904 38.8511 25.1904 38.5776C25.1904 38.2973 25.4105 38.0623 25.7063 38.0623C25.9792 38.0623 26.2142 38.2973 26.2142 38.5776Z" fill="#A9AFC3"/>
<path id="Vector_3" d="M48.6429 38.9569C48.59 39.0861 48.4234 39.1315 48.2563 39.1315C48.0667 39.1315 47.9 39.0706 47.8541 38.9569L47.2704 37.3034L46.6936 38.9494C46.6482 39.0706 46.4661 39.1315 46.2765 39.1315C46.1173 39.1315 45.9507 39.0861 45.8973 38.9494L44.7293 35.9539C44.6989 35.893 44.6914 35.8476 44.6914 35.8097C44.6914 35.5747 45.0706 35.4075 45.3285 35.4075C45.4572 35.4075 45.571 35.4604 45.6095 35.5667L46.3678 37.7205L46.9366 35.8471C46.9895 35.673 47.1182 35.65 47.2699 35.65C47.414 35.65 47.5508 35.673 47.6036 35.8471L48.1649 37.728L48.9313 35.5667C48.9687 35.4679 49.0755 35.4075 49.2117 35.4075C49.4542 35.4075 49.8414 35.5742 49.8414 35.8172C49.8414 35.8625 49.8339 35.9154 49.8109 35.9539L48.6429 38.9569Z" fill="#A9AFC3"/>
<path id="Vector_4" d="M42.931 38.9568C42.8781 39.0861 42.7115 39.1314 42.5443 39.1314C42.3548 39.1314 42.1881 39.0706 42.1422 38.9568L41.5585 37.3034L40.9817 38.9493C40.9363 39.0706 40.7547 39.1314 40.5646 39.1314C40.4054 39.1314 40.2388 39.0861 40.1854 38.9493L39.0174 35.9538C38.987 35.8929 38.9795 35.8475 38.9795 35.8096C38.9795 35.5746 39.3587 35.4075 39.6166 35.4075C39.7453 35.4075 39.8591 35.4603 39.8975 35.5666L40.6559 37.7205L41.2247 35.847C41.2776 35.6729 41.4068 35.6499 41.5585 35.6499C41.7027 35.6499 41.8389 35.6729 41.8917 35.847L42.453 37.7279L43.2194 35.5666C43.2573 35.4678 43.3636 35.4075 43.4998 35.4075C43.7428 35.4075 44.1294 35.5741 44.1294 35.8171C44.1294 35.8625 44.122 35.9154 44.099 35.9538L42.931 38.9568Z" fill="#A9AFC3"/>
<path id="Vector_5" d="M37.22 38.9569C37.1666 39.0861 37 39.1315 36.8334 39.1315C36.6438 39.1315 36.4766 39.0706 36.4312 38.9569L35.847 37.3034L35.2707 38.9494C35.2253 39.0706 35.0432 39.1315 34.8536 39.1315C34.6945 39.1315 34.5273 39.0861 34.4745 38.9494L33.3065 35.9539C33.276 35.893 33.2686 35.8476 33.2686 35.8097C33.2686 35.5747 33.6477 35.4075 33.9057 35.4075C34.0344 35.4075 34.1481 35.4604 34.1861 35.5667L34.9444 37.7205L35.5132 35.8471C35.5666 35.673 35.6953 35.65 35.847 35.65C35.9912 35.65 36.1279 35.673 36.1808 35.8471L36.7421 37.728L37.5079 35.5667C37.5458 35.4679 37.6521 35.4075 37.7888 35.4075C38.0313 35.4075 38.4185 35.5742 38.4185 35.8172C38.4185 35.8625 38.411 35.9154 38.388 35.9539L37.22 38.9569Z" fill="#A9AFC3"/>
<path id="Vector_6" d="M23.3389 38.0468C23.3389 37.3798 21.5413 37.7969 21.5413 36.5301C21.5413 35.9918 21.8826 35.4 22.8989 35.4C23.5136 35.4 24.1048 35.6126 24.1048 35.893C24.1048 36.0297 23.9761 36.3635 23.7486 36.3635C23.5664 36.3635 23.3315 36.1434 22.9144 36.1434C22.5352 36.1434 22.3835 36.333 22.3835 36.4847C22.3835 37.0385 24.2036 36.6593 24.2036 38.0089C24.2036 38.6845 23.7032 39.1165 22.8081 39.1165C22.0348 39.1165 21.4355 38.7977 21.4355 38.4639C21.4355 38.3048 21.5717 38.0319 21.7613 38.0319C21.9814 38.0319 22.1485 38.3731 22.7856 38.3731C23.2327 38.3731 23.3389 38.1985 23.3389 38.0468Z" fill="#A9AFC3"/>
<path id="Vector_7" d="M18.1744 35.7488V35.9763C18.3485 35.6809 18.7127 35.4 19.1981 35.4C19.9565 35.4 20.5557 36.098 20.5557 36.9397V37.5614C20.5557 38.3731 19.9341 39.1165 19.2286 39.1165C18.7736 39.1165 18.3789 38.8282 18.2352 38.5173V40.4132C18.2352 40.5724 18.0077 40.7241 17.7343 40.7241C17.4539 40.7241 17.2568 40.5724 17.2568 40.4132V35.7488C17.2568 35.5667 17.4614 35.4454 17.7193 35.4454C17.9848 35.4454 18.1744 35.5667 18.1744 35.7488ZM19.5773 36.9397C19.5773 36.5985 19.2665 36.2572 18.8873 36.2572C18.569 36.2572 18.2352 36.5146 18.2352 36.9397V37.6981C18.2352 37.8572 18.5156 38.2594 18.9023 38.2594C19.259 38.2594 19.5773 37.9106 19.5773 37.5614V36.9397Z" fill="#A9AFC3"/>
<path id="Vector_8" d="M15.1327 37.8193C15.1327 38.1152 15.2384 38.2214 15.5573 38.2214H15.8531C16.1335 38.2214 16.2702 38.4265 16.2702 38.6311C16.2702 38.8436 16.1335 39.0482 15.8531 39.0482H15.5573C14.6472 39.0482 14.1543 38.6764 14.1543 37.8193V34.1412C14.1543 33.9591 14.4122 33.8379 14.6398 33.8379C14.8902 33.8379 15.1327 33.9591 15.1327 34.1412V35.4454H16.0278C16.1869 35.4454 16.2777 35.6275 16.2777 35.8022C16.2777 35.9837 16.1869 36.1584 16.0278 36.1584H15.1327V37.8193Z" fill="#A9AFC3"/>
<path id="Vector_9" d="M12.0452 37.8193C12.0452 38.1152 12.1515 38.2214 12.4704 38.2214H12.7662C13.0466 38.2214 13.1833 38.4265 13.1833 38.6311C13.1833 38.8436 13.0466 39.0482 12.7662 39.0482H12.4704C11.5603 39.0482 11.0674 38.6764 11.0674 37.8193V34.1412C11.0674 33.9591 11.3248 33.8379 11.5528 33.8379C11.8028 33.8379 12.0458 33.9591 12.0458 34.1412V35.4454H12.9409C13.1 35.4454 13.1908 35.6275 13.1908 35.8022C13.1908 35.9837 13.1 36.1584 12.9409 36.1584H12.0458V37.8193H12.0452Z" fill="#A9AFC3"/>
<path id="Vector_10" d="M7.63127 38.7373C7.63127 38.8889 7.40323 39.0481 7.1378 39.0481C6.84995 39.0481 6.65234 38.8889 6.65234 38.7373V33.6482C6.65234 33.4661 6.84995 33.3444 7.1378 33.3444C7.40323 33.3444 7.63127 33.4661 7.63127 33.6482V35.9762C7.76746 35.6809 8.10872 35.3999 8.5867 35.3999C9.28418 35.3999 9.89087 36.098 9.89087 36.9396V38.7367C9.89087 38.9418 9.64094 39.0481 9.39794 39.0481C9.17043 39.0481 8.91248 38.9418 8.91248 38.7367V36.9396C8.91248 36.5984 8.60913 36.2571 8.25292 36.2571C7.9421 36.2571 7.63074 36.5145 7.63074 36.9396V38.7373H7.63127Z" fill="#A9AFC3"/>
<path id="Vector_11" d="M30.545 33.5421C30.545 33.5875 30.5375 33.6329 30.5146 33.6783L27.7919 39.1849C27.7385 39.2907 27.6173 39.3516 27.4961 39.3516C27.276 39.3516 27.1318 39.1774 27.1318 39.0178C27.1318 38.9724 27.1473 38.927 27.1698 38.8891L29.8924 33.36C29.9458 33.2537 30.0521 33.2008 30.1658 33.2008C30.3479 33.2008 30.545 33.337 30.545 33.5421Z" fill="#A9AFC3"/>
<path id="Vector_12" d="M32.836 33.5421C32.836 33.5875 32.828 33.6329 32.8056 33.6783L30.0824 39.1849C30.0295 39.2907 29.9083 39.3516 29.7871 39.3516C29.567 39.3516 29.4229 39.1774 29.4229 39.0178C29.4229 38.9724 29.4378 38.927 29.4608 38.8891L32.1834 33.36C32.2368 33.2537 32.3425 33.2008 32.4568 33.2008C32.6384 33.2008 32.836 33.337 32.836 33.5421Z" fill="#A9AFC3"/>
<path id="Vector_13" d="M65.0979 34.5626L63.9908 34.4018L63.4957 33.3983C63.234 32.8685 62.7053 32.5401 62.1146 32.5401C61.524 32.5401 60.9947 32.8691 60.7336 33.3983L60.2385 34.4018L59.1314 34.5626C58.5466 34.6475 58.0708 35.0491 57.8881 35.6104C57.7055 36.1722 57.855 36.7773 58.278 37.1896L59.0791 37.9704L58.89 39.0732C58.7896 39.6548 59.0246 40.2321 59.5026 40.5793C59.98 40.9264 60.6011 40.9718 61.1245 40.6968L62.1146 40.1761L63.1048 40.6968C63.3323 40.8159 63.578 40.8752 63.8231 40.8752C64.1409 40.8752 64.457 40.7753 64.7267 40.5793C65.2042 40.2321 65.4392 39.6548 65.3393 39.0732L65.1502 37.9704L65.9513 37.1896C66.3743 36.7773 66.5233 36.1722 66.3412 35.6104C66.1585 35.0491 65.6822 34.6475 65.0979 34.5626ZM63.524 36.6887C63.1614 37.0427 62.9958 37.5522 63.0813 38.0516L63.1406 38.3961L62.8314 38.2337C62.3827 37.9976 61.8471 37.9976 61.3979 38.2337L61.0887 38.3961L61.1475 38.0516C61.2335 37.5522 61.0679 37.0427 60.7047 36.6887L60.4548 36.4446L60.8003 36.3944C61.3018 36.3218 61.7355 36.0067 61.9603 35.5522L62.1146 35.2387L62.2695 35.5522C62.4938 36.0067 62.9275 36.3218 63.429 36.3944L63.7745 36.4446L63.524 36.6887Z" fill="#A9AFC3"/>
</g>
<defs>
<clipPath id="clip0_1359_7645">
<rect width="70" height="70" fill="white"/>
</clipPath>
</defs>
</svg>
