<svg width="70" height="70" viewBox="0 0 70 70" fill="none" xmlns="http://www.w3.org/2000/svg">
<g id="icon social-media" clip-path="url(#clip0_1359_7747)">
<path id="Vector" d="M60.1616 0H57.152C55.829 0 55.829 2.05108 57.152 2.05108H60.1616C63.2697 2.05108 65.7984 4.57062 65.7984 7.66748V31.4015C65.7984 34.4984 63.2698 37.018 60.1616 37.018H56.7482C56.523 37.018 56.3041 37.0921 56.1251 37.229L49.8616 42.02V38.0435C49.8616 37.4772 49.4026 37.018 48.8361 37.018H36.3546C35.3325 37.018 34.3501 36.7482 33.4838 36.2353V24.723C33.4838 22.5666 32.3855 20.6615 30.7177 19.5343V7.66748C30.7177 4.57062 33.2464 2.05108 36.3546 2.05108H50.7253C52.0481 2.05108 52.0481 0 50.7253 0H36.3546C32.1154 0 28.6666 3.43966 28.6666 7.66748V18.6329C28.197 18.5208 27.7078 18.4597 27.2043 18.4597H8.43067C4.96832 18.4597 2.15137 21.2694 2.15137 24.723V26.9375C2.15137 28.2603 4.20245 28.2603 4.20245 26.9375V24.723C4.20245 22.4004 6.09915 20.5108 8.43067 20.5108H27.2045C29.536 20.5108 31.4328 22.4004 31.4328 24.723V36.6436C31.4205 36.7341 31.4211 36.8253 31.4328 36.9152V43.4392C31.4328 43.5682 31.425 43.6966 31.4134 43.8243H29.2985C26.968 43.8243 25.0253 45.5063 24.6224 47.717C24.5292 47.7521 24.4396 47.8012 24.3566 47.8652L19.7697 51.4068V48.677C19.7697 48.1106 19.3107 47.6515 18.7442 47.6515H8.43067C6.09915 47.6515 4.20245 45.7619 4.20245 43.4392V33.0907C4.20245 31.7679 2.15137 31.7679 2.15137 33.0907V43.4394C2.15137 46.893 4.96832 49.7027 8.43067 49.7027H17.7188V53.4944C17.7188 54.3171 18.7176 54.8105 19.3711 54.3063L24.5446 50.3117V61.849C24.5446 64.4641 26.6773 66.5915 29.2986 66.5915H35.592V68.9846C35.592 69.8069 36.5909 70.301 37.2442 69.7964L41.3951 66.5915H42.6213C45.2426 66.5915 47.3753 64.464 47.3753 61.849V60.0282C47.3753 58.7054 45.3242 58.7054 45.3242 60.0282V61.849C45.3242 63.3332 44.1118 64.5404 42.6213 64.5404H41.0451C40.8183 64.5404 40.5979 64.6157 40.4185 64.7542L37.6429 66.897V65.5658C37.6429 64.9995 37.1839 64.5403 36.6174 64.5403H29.2985C27.8082 64.5403 26.5956 63.3329 26.5956 61.8489V48.5669C26.5956 47.0828 27.808 45.8755 29.2985 45.8755H42.6213C44.1116 45.8755 45.3242 47.0829 45.3242 48.5669V53.6015C45.3242 54.9243 47.3753 54.9243 47.3753 53.6015V48.5671C47.3753 45.9519 45.2426 43.8246 42.6213 43.8246H33.4721C33.4799 43.6964 33.4839 38.5166 33.4839 38.5166C34.3882 38.8802 35.3576 39.0692 36.3547 39.0692H47.8107V44.0957C47.8107 44.9163 48.8053 45.4103 49.4593 44.9103L57.0956 39.0692H60.1617C64.4008 39.0692 67.8496 35.6295 67.8496 31.4016V7.66748C67.8494 3.43966 64.4006 0 60.1616 0V0Z" fill="#A9AFC3"/>
<path id="Vector_2" d="M35.9476 51.1671C35.1195 50.4853 34.0178 50.2164 32.9126 50.4851C31.4964 50.829 30.0674 52.1529 30.0674 54.3351C30.0674 55.6933 30.5631 56.8723 31.5827 57.9394C32.4156 58.8111 33.6175 59.64 35.4796 60.6272C35.6299 60.707 35.795 60.7468 35.96 60.7468C36.125 60.7468 36.2901 60.707 36.4404 60.6272C39.689 58.905 41.8525 57.176 41.8525 54.3351C41.8525 52.141 40.3727 50.8306 38.906 50.5053C37.8042 50.2608 36.736 50.5203 35.9476 51.1671ZM39.8013 54.3351C39.8013 55.8674 38.7849 57.0005 35.9599 58.5557C33.1348 57.0004 32.1183 55.8672 32.1183 54.3351C32.1183 53.195 32.7785 52.6283 33.3964 52.4782C33.5103 52.4505 33.6323 52.435 33.7577 52.435C34.2225 52.435 34.7335 52.6496 35.0485 53.2605C35.228 53.608 35.5909 53.8235 35.9802 53.8155C36.3712 53.8077 36.7238 53.5782 36.8891 53.2238C37.221 52.5125 37.9189 52.3874 38.4615 52.5078C39.1094 52.6513 39.8013 53.2069 39.8013 54.3351Z" fill="#A9AFC3"/>
<path id="Vector_3" d="M10.9328 35.62C10.3663 35.62 9.90723 36.0792 9.90723 36.6456C9.90723 37.212 10.3663 37.6711 10.9328 37.6711H13.9558L13.3911 41.0867C13.2986 41.6454 13.6768 42.1734 14.2355 42.2658C14.2923 42.2752 14.3485 42.2798 14.404 42.2798C14.8968 42.2798 15.3315 41.9236 15.4146 41.4213L16.0346 37.6713H18.5086L17.9439 41.0868C17.8515 41.6456 18.2297 42.1735 18.7884 42.2659C18.8451 42.2754 18.9013 42.2799 18.9569 42.2799C19.4497 42.2799 19.8844 41.9237 19.9675 41.4214L20.5875 37.6714H24.7023C25.2688 37.6714 25.7279 37.2122 25.7279 36.6459C25.7279 36.0795 25.2688 35.6203 24.7023 35.6203H20.9266L21.3402 33.1185H24.7023C25.2688 33.1185 25.7279 32.6594 25.7279 32.093C25.7279 31.5266 25.2688 31.0675 24.7023 31.0675H21.6793L22.2441 27.6519C22.3365 27.0932 21.9583 26.5652 21.3996 26.4728C20.8402 26.3801 20.3129 26.7586 20.2205 27.3173L19.6005 31.0673H17.1265L17.6912 27.6517C17.7836 27.093 17.4054 26.5651 16.8467 26.4727C16.2866 26.3799 15.7602 26.7584 15.6676 27.3171L15.0476 31.0672H10.9328C10.3663 31.0672 9.90723 31.5264 9.90723 32.0927C9.90723 32.6591 10.3663 33.1183 10.9328 33.1183H14.7085L14.2949 35.62H10.9328ZM16.7875 33.1183H19.2615L18.8479 35.62H16.3739L16.7875 33.1183Z" fill="#A9AFC3"/>
<path id="Vector_4" d="M50.8202 7.57689C49.518 7.24448 48.1911 8.2733 48.1911 9.61881C48.1911 11.0889 47.6554 12.5056 46.6833 13.6073L43.8577 16.8047C43.6748 16.524 43.3586 16.3381 42.9986 16.3381H37.4826C36.9161 16.3381 36.457 16.7973 36.457 17.3637V29.7748C36.457 30.3411 36.9161 30.8003 37.4826 30.8003H42.9986C43.4131 30.8003 43.7691 30.554 43.9309 30.2004C45.0476 30.8827 46.3417 31.2517 47.6584 31.2517H57.4067C58.8964 31.2517 60.1252 29.9591 60.0554 28.4733C60.0243 27.8153 60.0582 18.9802 60.0582 18.784C60.0582 17.322 58.8688 16.1323 57.4098 16.1323L52.3404 16.1172L52.5503 15.6201C53.5096 13.3485 53.3516 10.7144 52.1284 8.57344C51.8428 8.07325 51.3781 7.71951 50.8202 7.57689C51.3781 7.71951 50.262 7.43441 50.8202 7.57689C51.3781 7.71951 49.5182 7.24448 50.8202 7.57689ZM41.9731 28.7492H38.5081V18.3892H41.9731V28.7492ZM57.4067 18.1833C57.7379 18.1833 58.0073 18.4527 58.0073 18.7838C58.0073 18.979 58.0052 19.5086 58.0025 20.2266C57.9873 24.1909 57.9772 27.9455 58.0065 28.5695C58.0171 28.7947 57.9076 28.9449 57.8414 29.0143C57.7268 29.1344 57.5725 29.2005 57.4067 29.2005H47.6584C46.4964 29.2005 45.3591 28.7978 44.4558 28.0666L44.0241 27.7171V19.7137L48.2208 14.9649C49.5243 13.4876 50.2422 11.5889 50.2422 9.61867C50.2422 9.5607 50.3214 9.54565 50.3476 9.59078C51.2558 11.1801 51.3729 13.1356 50.6609 14.822L49.8515 16.7389C49.7179 17.0552 49.7516 17.4171 49.9407 17.7035C50.1301 17.9898 50.45 18.1624 50.7931 18.1635L57.4067 18.1833Z" fill="#A9AFC3"/>
</g>
<defs>
<clipPath id="clip0_1359_7747">
<rect width="70" height="70" fill="white"/>
</clipPath>
</defs>
</svg>
