<svg width="70" height="70" viewBox="0 0 70 70" fill="none" xmlns="http://www.w3.org/2000/svg">
<g id="icon app" clip-path="url(#clip0_1359_7840)">
<path id="Vector" d="M54.7638 64.2367V53.6666H52.4304V58.3333H17.5193L17.4993 55.9897L15.166 56.0102L15.2349 64.2367C15.2389 67.4183 17.8178 69.9965 20.9993 70H48.9993C52.1815 69.9965 54.7603 67.4183 54.7638 64.2367ZM48.9993 67.6666H20.9993C19.1024 67.6632 17.5666 66.1234 17.5683 64.2259L17.5392 60.6666H52.4304V64.2367C52.4281 66.1303 50.8935 67.6649 48.9993 67.6666Z" fill="#A9AFC3"/>
<path id="Vector_2" d="M33.832 63H36.1654V65.3333H33.832V63Z" fill="#A9AFC3"/>
<path id="Vector_3" d="M41.999 11.6667V14H52.4301V16.3334H54.7634V10.43C54.76 7.24839 52.1811 4.67011 48.999 4.66669H41.999V7.00002H48.999C50.8931 7.00173 52.4278 8.5364 52.4301 10.43V11.6667H41.999Z" fill="#A9AFC3"/>
<path id="Vector_4" d="M6.99902 4.66667V18.6667C6.99902 21.2438 9.08854 23.3333 11.6657 23.3333H19.4826L26.1886 27.804C26.5464 28.041 27.0055 28.0621 27.3838 27.8593C27.762 27.6565 27.9985 27.2623 27.999 26.8333V23.3333H34.999C37.5767 23.3333 39.6657 21.2438 39.6657 18.6667V4.66667C39.6657 2.08952 37.5767 0 34.999 0H11.6657C9.08854 0 6.99902 2.08952 6.99902 4.66667ZM37.3324 4.66667V18.6667C37.3324 19.9552 36.2876 21 34.999 21H26.8324C26.1881 21 25.6657 21.5224 25.6657 22.1667V24.6538L20.4801 21.196C20.2881 21.0684 20.0631 21.0006 19.8324 21H11.6657C10.3771 21 9.33236 19.9552 9.33236 18.6667V4.66667C9.33236 3.37809 10.3771 2.33333 11.6657 2.33333H34.999C36.2876 2.33333 37.3324 3.37809 37.3324 4.66667Z" fill="#A9AFC3"/>
<path id="Vector_5" d="M13.9993 53.6666C16.9934 53.6626 19.9078 52.701 22.3163 50.9226L27.6831 52.4555C28.1286 52.5831 28.6071 52.4356 28.9028 52.0795C29.1984 51.7235 29.2554 51.2256 29.048 50.8121L26.5609 45.8497C29.3215 40.242 28.0306 33.4841 23.397 29.2885C18.7639 25.0935 11.9109 24.4777 6.60392 27.7801C1.29696 31.0824 -1.17822 37.5025 0.538737 43.5124C2.25627 49.5223 7.74894 53.6661 13.9993 53.6666ZM13.9993 28C18.1213 28 21.9375 30.1755 24.0378 33.7228C26.1382 37.2695 26.2105 41.6616 24.2287 45.2761C24.0447 45.6116 24.0367 46.0161 24.2076 46.3584L25.7702 49.483L22.3864 48.5169C22.0224 48.4143 21.631 48.4947 21.3365 48.7328C19.2658 50.4235 16.6727 51.343 13.9993 51.3333C7.55583 51.3333 2.3326 46.1101 2.3326 39.6666C2.3326 33.2232 7.55583 28 13.9993 28Z" fill="#A9AFC3"/>
<path id="Vector_6" d="M6.59898 42.1167L13.2595 47.5718C13.6896 47.9244 14.3088 47.9244 14.7389 47.5718L21.3994 42.1167C22.488 41.236 23.1767 39.9543 23.31 38.5603C23.4399 37.1846 23.0092 35.814 22.1154 34.7596C21.1179 33.5912 19.6852 32.8831 18.1517 32.7999C16.6176 32.7168 15.1171 33.2665 13.9989 34.3198C12.8744 33.2665 11.3682 32.7185 9.82953 32.8033C8.30056 32.8842 6.87299 33.5923 5.88234 34.7596C4.98855 35.814 4.55788 37.1846 4.68776 38.5603C4.82106 39.9543 5.50979 41.236 6.59898 42.1167ZM7.67222 36.2566C8.24758 35.5827 9.0753 35.176 9.95998 35.1327H10.1457C10.9791 35.1293 11.7823 35.446 12.389 36.0174L13.1928 36.7847C13.644 37.2159 14.3544 37.2159 14.805 36.7847L15.6093 36.0174C16.2599 35.409 17.1297 35.0917 18.0196 35.1378C18.9094 35.184 19.7416 35.5901 20.3261 36.2623C20.8177 36.8405 21.0558 37.5925 20.9875 38.3484C20.9112 39.1215 20.5261 39.8318 19.9199 40.3177L13.9989 45.1582L8.07839 40.3081C7.4717 39.8221 7.08718 39.1123 7.01084 38.3387C6.94191 37.5828 7.1806 36.8314 7.67222 36.2532V36.2566Z" fill="#A9AFC3"/>
<path id="Vector_7" d="M53.6654 18.6667C47.8662 18.6593 42.4995 21.7315 39.5697 26.736C36.6399 31.7404 36.5875 37.9241 39.4324 42.9776L36.3198 48.4167C36.0879 48.8223 36.1204 49.3276 36.4029 49.7001C36.6849 50.0721 37.1623 50.2402 37.6157 50.1268L44.4033 48.4298C47.1206 50.3234 50.3534 51.3368 53.6654 51.3334C62.686 51.3334 69.9987 44.0206 69.9987 35C69.9987 25.9794 62.686 18.6667 53.6654 18.6667ZM53.6654 49C50.6644 49.0035 47.7432 48.0333 45.3404 46.2349C45.1381 46.0834 44.8926 46.0019 44.6402 46.0019C44.5445 46.0013 44.4494 46.0127 44.3566 46.0367L39.6973 47.2033L41.7868 43.5461C41.9999 43.1735 41.9919 42.7144 41.7657 42.3498C38.4241 36.9278 39.1681 29.9323 43.5744 25.3334C47.9813 20.7351 54.938 19.6938 60.4985 22.8007C66.0584 25.9077 68.8173 32.3785 67.2102 38.5416C65.6027 44.7048 60.0348 49.004 53.6654 49Z" fill="#A9AFC3"/>
<path id="Vector_8" d="M60.1988 31.5H58.332V29.1667C58.332 26.5895 56.2431 24.5 53.6654 24.5C52.3768 24.5 51.332 25.5448 51.332 26.8333V29.8503L49.6823 31.5H45.4987C44.8544 31.5 44.332 32.0224 44.332 32.6667V42C44.332 42.6443 44.8544 43.1667 45.4987 43.1667H60.1988C61.7454 43.1667 62.9987 41.9128 62.9987 40.3668V34.2999C62.9987 32.7538 61.7454 31.5 60.1988 31.5ZM46.6654 33.8333H48.9987V40.8333H46.6654V33.8333ZM60.6654 40.3668C60.6654 40.6243 60.4563 40.8333 60.1988 40.8333H51.332V33.1497L53.3236 31.1582C53.5423 30.9395 53.6654 30.6427 53.6654 30.3333V26.8333C54.9539 26.8333 55.9987 27.8781 55.9987 29.1667V31.5C55.3544 31.5 54.832 32.0224 54.832 32.6667C54.832 33.311 55.3544 33.8333 55.9987 33.8333H60.1988C60.4563 33.8333 60.6654 34.0424 60.6654 34.2999V40.3668Z" fill="#A9AFC3"/>
<path id="Vector_9" d="M13.9987 18.6667H25.6654C26.3097 18.6667 26.832 18.1443 26.832 17.5V15.8879L32.1441 18.5499C32.5064 18.731 32.9377 18.7111 33.2817 18.4969C33.6258 18.2827 33.8343 17.9056 33.832 17.5V5.83334C33.8326 5.42888 33.623 5.05348 33.2795 4.84042C32.9354 4.62794 32.5059 4.60857 32.1441 4.78915L26.832 7.44548V5.83334C26.832 5.18906 26.3097 4.66668 25.6654 4.66668H13.9987C13.3544 4.66668 12.832 5.18906 12.832 5.83334V17.5C12.832 18.1443 13.3544 18.6667 13.9987 18.6667ZM15.1654 7.00001H24.4987V9.33334C24.4987 9.7378 24.7078 10.1132 25.0518 10.3263C25.3959 10.5387 25.8254 10.5581 26.1872 10.3775L31.4987 7.7212V15.6122L26.1872 12.9558C25.8254 12.7752 25.3959 12.7946 25.0518 13.0071C24.7078 13.2201 24.4987 13.5956 24.4987 14V16.3333H15.1654V7.00001Z" fill="#A9AFC3"/>
</g>
<defs>
<clipPath id="clip0_1359_7840">
<rect width="70" height="70" fill="white"/>
</clipPath>
</defs>
</svg>
