<svg width="38" height="38" viewBox="0 0 38 38" fill="none" xmlns="http://www.w3.org/2000/svg">
<g clip-path="url(#clip0_1347_808)">
<path d="M24.3438 1.78125H4.15625V2.96875H10.1329C9.21375 3.54747 8.42722 4.31391 7.82496 5.21786C7.2227 6.12176 6.81823 7.14278 6.63814 8.21393L7.809 8.41107C8.0324 7.08141 8.66233 5.85363 9.61218 4.89668C10.562 3.93973 11.785 3.30064 13.113 3.06731H15.387C16.715 3.30064 17.938 3.93973 18.8878 4.89668C19.8377 5.85363 20.4676 7.08141 20.691 8.41107L21.8619 8.21393C21.6818 7.14278 21.2773 6.12176 20.675 5.21786C20.0728 4.31391 19.2863 3.54747 18.3671 2.96875H24.3438V1.78125Z" fill="#BDBDBE"/>
<path d="M24.3438 1.78125H4.15625V2.375H24.3438V1.78125Z" fill="#E5E5E5"/>
<path d="M11.2812 13.0625H2.375C2.06006 13.0625 1.75801 13.1876 1.53531 13.4103C1.31261 13.633 1.1875 13.9351 1.1875 14.25V35.625C1.1875 35.9399 1.31261 36.242 1.53531 36.4647C1.75801 36.6874 2.06006 36.8125 2.375 36.8125H35.625C35.9399 36.8125 36.242 36.6874 36.4647 36.4647C36.6874 36.242 36.8125 35.9399 36.8125 35.625V14.25C36.8125 13.9351 36.6874 13.633 36.4647 13.4103C36.242 13.1876 35.9399 13.0625 35.625 13.0625H17.2188" fill="#BDBDBE"/>
<path d="M35.625 13.0625H2.375C2.06006 13.0625 1.75801 13.1876 1.53531 13.4103C1.31261 13.633 1.1875 13.9351 1.1875 14.25V33.8438C1.1875 34.1587 1.31261 34.4608 1.53531 34.6834C1.75801 34.9062 2.06006 35.0312 2.375 35.0312H35.625C35.9399 35.0312 36.242 34.9062 36.4647 34.6834C36.6874 34.4608 36.8125 34.1587 36.8125 33.8438V14.25C36.8125 13.9351 36.6874 13.633 36.4647 13.4103C36.242 13.1876 35.9399 13.0625 35.625 13.0625Z" fill="#D7D7D8"/>
<path d="M35.625 24.3438H34.4375V25.5312H35.625V24.3438Z" fill="#5A5B5D"/>
<path d="M17.8125 14.8438H33.25V35.0312H2.96875V14.8438H10.6875H17.8125Z" fill="#161616"/>
<path d="M10.6875 14.8438H4.75V32.6562C4.75 32.9712 4.8751 33.2733 5.09781 33.4959C5.32049 33.7187 5.62256 33.8438 5.9375 33.8438H33.25V14.8438H10.6875Z" fill="#040404"/>
<path d="M31.4688 17.8125H27.9062V21.375H31.4688V17.8125Z" fill="#FFEBEB"/>
<path d="M31.4688 23.1562H27.9062V26.7188H31.4688V23.1562Z" fill="#FFEBEB"/>
<path d="M31.4688 28.5H27.9062V32.0625H31.4688V28.5Z" fill="black"/>
<path d="M15.4375 1.1875H13.0625V3.5625H15.4375V1.1875Z" fill="black"/>
<path d="M22.5625 7.71875H20.1875V10.0938H22.5625V7.71875Z" fill="black"/>
<path d="M8.3125 7.71875H5.9375V10.0938H8.3125V7.71875Z" fill="black"/>
<path d="M16.0312 23.75V22.5625C16.0312 21.6177 16.4066 20.7115 17.0747 20.0434C17.7428 19.3753 18.6489 19 19.5938 19L14.25 5.9375L8.90625 19C9.85108 19 10.7572 19.3753 11.4253 20.0434C12.0934 20.7115 12.4688 21.6177 12.4688 22.5625V23.75H16.0312Z" fill="#E5E5E5"/>
<path d="M16.0312 23.75V22.5625C16.0312 21.6177 16.4066 20.7115 17.0747 20.0434C17.7428 19.3753 18.6489 19 19.5938 19L14.25 5.9375V23.75H16.0312Z" fill="#F2F2F2"/>
<path d="M14.25 19.5938C14.9058 19.5938 15.4375 19.0621 15.4375 18.4062C15.4375 17.7504 14.9058 17.2188 14.25 17.2188C13.5942 17.2188 13.0625 17.7504 13.0625 18.4062C13.0625 19.0621 13.5942 19.5938 14.25 19.5938Z" fill="#9C9D9E"/>
<path d="M17.2188 23.75H11.2812V26.125H17.2188V23.75Z" fill="#BDBDBE"/>
<path d="M16.625 35.0312L16.0312 26.125H12.4688L11.875 35.0312H16.625Z" fill="black"/>
<path d="M24.9375 3.5625C25.5933 3.5625 26.125 3.03084 26.125 2.375C26.125 1.71916 25.5933 1.1875 24.9375 1.1875C24.2817 1.1875 23.75 1.71916 23.75 2.375C23.75 3.03084 24.2817 3.5625 24.9375 3.5625Z" fill="#FFEBEB"/>
<path d="M3.5625 3.5625C4.21834 3.5625 4.75 3.03084 4.75 2.375C4.75 1.71916 4.21834 1.1875 3.5625 1.1875C2.90666 1.1875 2.375 1.71916 2.375 2.375C2.375 3.03084 2.90666 3.5625 3.5625 3.5625Z" fill="#FFEBEB"/>
<path d="M28.5 30.2812C28.5 30.5962 28.6251 30.8983 28.8478 31.1209C29.0705 31.3437 29.3726 31.4688 29.6875 31.4688H31.4688V28.5H28.5V30.2812Z" fill="#1B1B1B"/>
<path d="M28.5 24.9375C28.5 25.2524 28.6251 25.5545 28.8478 25.7772C29.0705 25.9999 29.3726 26.125 29.6875 26.125H31.4688V23.1562H28.5V24.9375Z" fill="#2E2E2E"/>
<path d="M28.5 19.5938C28.5 19.9087 28.6251 20.2108 28.8478 20.4334C29.0705 20.6562 29.3726 20.7812 29.6875 20.7812H31.4688V17.8125H28.5V19.5938Z" fill="#FFEBEB"/>
<path d="M13.6562 17.8125H14.8438V7.38864L14.25 5.9375L13.6562 7.38864V17.8125Z" fill="#9C9D9E"/>
<path d="M17.2188 23.75H14.25V26.125H17.2188V23.75Z" fill="#D7D7D8"/>
<path d="M13.6562 26.125L13.0625 35.0312H16.625L16.0312 26.125H13.6562Z" fill="black"/>
<path d="M35.625 12.469H17.5637L14.7998 5.71334C14.7552 5.60409 14.6792 5.51057 14.5812 5.44475C14.4833 5.3789 14.368 5.34375 14.25 5.34375C14.132 5.34375 14.0167 5.3789 13.9188 5.44475C13.8208 5.51057 13.7448 5.60409 13.7002 5.71334L10.9363 12.469H2.375C1.90258 12.469 1.44951 12.6567 1.11547 12.9908C0.781417 13.3248 0.59375 13.7779 0.59375 14.2503V35.6253C0.59375 36.0977 0.781417 36.5508 1.11547 36.8848C1.44951 37.2189 1.90258 37.4065 2.375 37.4065H35.625C36.0974 37.4065 36.5505 37.2189 36.8845 36.8848C37.2186 36.5508 37.4062 36.0977 37.4062 35.6253V14.2503C37.4062 13.7779 37.2186 13.3248 36.8845 12.9908C36.5505 12.6567 36.0974 12.469 35.625 12.469ZM14.8438 18.4065C14.8438 18.524 14.8089 18.6388 14.7437 18.7364C14.6784 18.8341 14.5857 18.9101 14.4772 18.9551C14.3687 19 14.2494 19.0118 14.1342 18.9889C14.019 18.966 13.9132 18.9094 13.8301 18.8264C13.7471 18.7433 13.6906 18.6376 13.6676 18.5224C13.6447 18.4072 13.6565 18.2878 13.7014 18.1793C13.7464 18.0708 13.8225 17.9781 13.9201 17.9129C14.0178 17.8476 14.1326 17.8128 14.25 17.8128C14.4075 17.8128 14.5585 17.8754 14.6699 17.9867C14.7812 18.098 14.8438 18.249 14.8438 18.4065ZM13.6562 16.7345C13.2601 16.8746 12.9262 17.1502 12.7136 17.5126C12.501 17.875 12.4233 18.301 12.4944 18.7151C12.5655 19.1293 12.7806 19.5049 13.1019 19.7758C13.4232 20.0466 13.8298 20.1952 14.25 20.1952C14.6702 20.1952 15.0768 20.0466 15.3981 19.7758C15.7194 19.5049 15.9345 19.1293 16.0056 18.7151C16.0767 18.301 15.999 17.875 15.7864 17.5126C15.5738 17.1502 15.2399 16.8746 14.8438 16.7345V8.95641L18.7447 18.492C17.8103 18.6886 16.9719 19.2003 16.3698 19.9414C15.7677 20.6825 15.4386 21.6079 15.4375 22.5628V23.1565H13.0625V22.5628C13.0612 21.6082 12.7319 20.6829 12.1299 19.9421C11.5278 19.2012 10.6895 18.6898 9.75532 18.4932L13.6562 8.95759V16.7345ZM11.875 25.5315V24.344H16.625V25.5315H11.875ZM8.41343 19.3316C8.46777 19.4124 8.54115 19.4786 8.62706 19.5244C8.71302 19.5701 8.80889 19.5941 8.90625 19.594C9.69331 19.595 10.4479 19.908 11.0044 20.4646C11.561 21.0211 11.8741 21.7757 11.875 22.5628V23.1565H11.2812C11.1238 23.1565 10.9728 23.2191 10.8614 23.3304C10.75 23.4418 10.6875 23.5928 10.6875 23.7503V26.1253C10.6875 26.2827 10.75 26.4338 10.8614 26.5451C10.9728 26.6565 11.1238 26.719 11.2812 26.719H11.834L11.3199 34.4378H3.5625V15.4378H9.72207L8.35643 18.7758C8.31961 18.866 8.30555 18.9639 8.3155 19.0608C8.32542 19.1578 8.35909 19.2508 8.41343 19.3316ZM13.0239 26.719H15.4761L15.9903 34.4378H12.5097L13.0239 26.719ZM17.1801 34.4378L16.666 26.719H17.2188C17.3762 26.719 17.5272 26.6565 17.6386 26.5451C17.75 26.4338 17.8125 26.2827 17.8125 26.1253V23.7503C17.8125 23.5928 17.75 23.4418 17.6386 23.3304C17.5272 23.2191 17.3762 23.1565 17.2188 23.1565H16.625V22.5628C16.6259 21.7757 16.939 21.0211 17.4956 20.4646C18.0521 19.908 18.8067 19.595 19.5938 19.594C19.6911 19.5941 19.7871 19.5701 19.873 19.5243C19.959 19.4785 20.0323 19.4123 20.0867 19.3314C20.141 19.2506 20.1746 19.1577 20.1845 19.0608C20.1945 18.9639 20.1804 18.866 20.1436 18.7758L18.7779 15.4378H32.6562V34.4378H17.1801ZM36.2188 35.6253C36.2188 35.7827 36.1562 35.9338 36.0449 36.0451C35.9335 36.1565 35.7825 36.219 35.625 36.219H2.375C2.21753 36.219 2.0665 36.1565 1.95516 36.0451C1.84381 35.9338 1.78125 35.7827 1.78125 35.6253V14.2503C1.78125 14.0928 1.84381 13.9418 1.95516 13.8304C2.0665 13.7191 2.21753 13.6565 2.375 13.6565H10.45L10.2071 14.2503H2.96875C2.81128 14.2503 2.66025 14.3129 2.54891 14.4242C2.43756 14.5355 2.375 14.6865 2.375 14.844V35.0315C2.375 35.189 2.43756 35.34 2.54891 35.4514C2.66025 35.5627 2.81128 35.6253 2.96875 35.6253H33.25C33.4075 35.6253 33.5585 35.5627 33.6699 35.4514C33.7812 35.34 33.8438 35.189 33.8438 35.0315V14.844C33.8438 14.6865 33.7812 14.5355 33.6699 14.4242C33.5585 14.3129 33.4075 14.2503 33.25 14.2503H18.2922L18.05 13.6565H35.625C35.7825 13.6565 35.9335 13.7191 36.0449 13.8304C36.1562 13.9418 36.2188 14.0928 36.2188 14.2503V35.6253Z" fill="#FFEBEB"/>
<path d="M35.625 24.3438H34.4375V25.5312H35.625V24.3438Z" fill="black"/>
<path d="M31.469 17.2188H27.9065C27.749 17.2188 27.598 17.2813 27.4866 17.3927C27.3753 17.504 27.3127 17.655 27.3127 17.8125V21.375C27.3127 21.5325 27.3753 21.6835 27.4866 21.7949C27.598 21.9062 27.749 21.9688 27.9065 21.9688H31.469C31.6264 21.9688 31.7775 21.9062 31.8888 21.7949C32.0001 21.6835 32.0627 21.5325 32.0627 21.375V17.8125C32.0627 17.655 32.0001 17.504 31.8888 17.3927C31.7775 17.2813 31.6264 17.2188 31.469 17.2188ZM30.8752 20.7812H28.5002V18.4062H30.8752V20.7812ZM31.469 22.5625H27.9065C27.749 22.5625 27.598 22.625 27.4866 22.7364C27.3753 22.8478 27.3127 22.9988 27.3127 23.1562V26.7188C27.3127 26.8762 27.3753 27.0272 27.4866 27.1386C27.598 27.25 27.749 27.3125 27.9065 27.3125H31.469C31.6264 27.3125 31.7775 27.25 31.8888 27.1386C32.0001 27.0272 32.0627 26.8762 32.0627 26.7188V23.1562C32.0627 22.9988 32.0001 22.8478 31.8888 22.7364C31.7775 22.625 31.6264 22.5625 31.469 22.5625ZM30.8752 26.125H28.5002V23.75H30.8752V26.125ZM31.469 27.9062H27.9065C27.749 27.9062 27.598 27.9688 27.4866 28.0802C27.3753 28.1915 27.3127 28.3425 27.3127 28.5V32.0625C27.3127 32.22 27.3753 32.371 27.4866 32.4824C27.598 32.5937 27.749 32.6562 27.9065 32.6562H31.469C31.6264 32.6562 31.7775 32.5937 31.8888 32.4824C32.0001 32.371 32.0627 32.22 32.0627 32.0625V28.5C32.0627 28.3425 32.0001 28.1915 31.8888 28.0802C31.7775 27.9688 31.6264 27.9062 31.469 27.9062ZM30.8752 31.4688H28.5002V29.0938H30.8752V31.4688ZM3.56271 4.15625C3.9298 4.15473 4.28746 4.03982 4.58675 3.82725C4.88604 3.6147 5.11233 3.31485 5.23472 2.96875H10.1332C8.42361 4.0462 7.20563 5.75198 6.74165 7.71875H5.93772C5.78025 7.71875 5.6292 7.7813 5.51786 7.89268C5.40652 8.00402 5.34397 8.15503 5.34397 8.3125V10.6875C5.34397 10.845 5.40652 10.996 5.51786 11.1074C5.6292 11.2187 5.78025 11.2812 5.93772 11.2812H8.31272C8.4702 11.2812 8.62121 11.2187 8.73255 11.1074C8.84389 10.996 8.90647 10.845 8.90647 10.6875V8.3125C8.90647 8.15503 8.84389 8.00402 8.73255 7.89268C8.62121 7.7813 8.4702 7.71875 8.31272 7.71875H7.96951C8.27241 6.64673 8.84507 5.67028 9.63277 4.88254C10.4205 4.09484 11.397 3.52222 12.469 3.21932V3.5625C12.469 3.71997 12.5315 3.87098 12.6429 3.98236C12.7542 4.0937 12.9053 4.15625 13.0627 4.15625H15.4377C15.5952 4.15625 15.7462 4.0937 15.8575 3.98236C15.9689 3.87098 16.0315 3.71997 16.0315 3.5625V3.21932C17.1035 3.52222 18.0799 4.09484 18.8676 4.88254C19.6553 5.67028 20.228 6.64673 20.5309 7.71875H20.1877C20.0303 7.71875 19.8792 7.7813 19.7679 7.89268C19.6565 8.00402 19.594 8.15503 19.594 8.3125V10.6875C19.594 10.845 19.6565 10.996 19.7679 11.1074C19.8792 11.2187 20.0303 11.2812 20.1877 11.2812H22.5627C22.7202 11.2812 22.8712 11.2187 22.9825 11.1074C23.0939 10.996 23.1565 10.845 23.1565 10.6875V8.3125C23.1565 8.15503 23.0939 8.00402 22.9825 7.89268C22.8712 7.7813 22.7202 7.71875 22.5627 7.71875H21.7588C21.2948 5.75198 20.0768 4.0462 18.3673 2.96875H23.2657C23.4058 3.36491 23.6814 3.6988 24.0438 3.91142C24.4062 4.12403 24.8322 4.20166 25.2463 4.1306C25.6604 4.05954 26.0361 3.84438 26.3069 3.52311C26.5778 3.20185 26.7263 2.79519 26.7263 2.375C26.7263 1.95481 26.5778 1.54815 26.3069 1.22689C26.0361 0.905634 25.6604 0.690459 25.2463 0.619407C24.8322 0.548351 24.4062 0.625989 24.0438 0.838599C23.6814 1.0512 23.4058 1.3851 23.2657 1.78125H16.0315V1.1875C16.0315 1.03003 15.9689 0.879008 15.8575 0.76766C15.7462 0.656309 15.5952 0.593753 15.4377 0.593753H13.0627C12.9053 0.593753 12.7542 0.656309 12.6429 0.76766C12.5315 0.879008 12.469 1.03003 12.469 1.1875V1.78125H5.23472C5.12532 1.47418 4.93365 1.20308 4.68061 0.997583C4.42757 0.792083 4.12292 0.660086 3.79993 0.616017C3.47695 0.571949 3.14808 0.617507 2.84924 0.74771C2.5504 0.877913 2.2931 1.08775 2.10545 1.3543C1.9178 1.62084 1.80703 1.93384 1.78523 2.25908C1.76344 2.58432 1.83146 2.9093 1.98187 3.1985C2.13228 3.4877 2.35928 3.72999 2.63808 3.89891C2.91687 4.06782 3.23673 4.15682 3.56271 4.15625ZM7.71897 10.0937H6.53147V8.90625H7.71897V10.0937ZM21.969 10.0937H20.7815V8.90625H21.969V10.0937ZM24.9377 1.78125C25.0551 1.78125 25.1699 1.81608 25.2676 1.88132C25.3652 1.94656 25.4413 2.03929 25.4863 2.14779C25.5312 2.25628 25.543 2.37566 25.52 2.49084C25.4971 2.60601 25.4406 2.71181 25.3575 2.79485C25.2745 2.87788 25.1687 2.93444 25.0535 2.95735C24.9384 2.98026 24.819 2.96849 24.7105 2.92356C24.602 2.87862 24.5093 2.80251 24.444 2.70487C24.3788 2.60723 24.344 2.49243 24.344 2.375C24.344 2.21753 24.4065 2.06651 24.5179 1.95516C24.6292 1.84381 24.7803 1.78125 24.9377 1.78125ZM13.6565 1.78125H14.844V2.96875H13.6565V1.78125ZM3.56271 1.78125C3.68014 1.78125 3.79494 1.81608 3.89256 1.88132C3.99022 1.94656 4.06634 2.03929 4.11125 2.14779C4.15621 2.25628 4.16795 2.37566 4.14504 2.49084C4.12212 2.60601 4.06558 2.71181 3.98255 2.79485C3.89952 2.87788 3.79372 2.93444 3.67854 2.95735C3.56337 2.98026 3.44398 2.96849 3.33549 2.92356C3.22699 2.87862 3.13426 2.80251 3.06902 2.70487C3.00378 2.60723 2.96896 2.49243 2.96896 2.375C2.96896 2.21753 3.03151 2.06651 3.14286 1.95516C3.25421 1.84381 3.40523 1.78125 3.56271 1.78125Z" fill="#FFEBEB"/>
</g>
<defs>
<clipPath id="clip0_1347_808">
<rect width="38" height="38" fill="white"/>
</clipPath>
</defs>
</svg>
