<svg width="76" height="76" viewBox="0 0 76 76" fill="none" xmlns="http://www.w3.org/2000/svg">
<path d="M22.1543 48.1012C22.1543 50.187 22.5651 52.2523 23.3633 54.1793C24.1615 56.1063 25.3314 57.8572 26.8063 59.332C28.2811 60.8069 30.032 61.9768 31.959 62.775C33.886 63.5732 35.9513 63.984 38.0371 63.984C40.1229 63.984 42.1882 63.5732 44.1152 62.775C46.0422 61.9768 47.7931 60.8069 49.268 59.332C50.7428 57.8572 51.9127 56.1063 52.7109 54.1793C53.5091 52.2523 53.9199 50.187 53.9199 48.1012C53.9199 46.0154 53.5091 43.9501 52.7109 42.0231C51.9127 40.0961 50.7428 38.3452 49.268 36.8704C47.7931 35.3955 46.0422 34.2256 44.1152 33.4274C42.1882 32.6292 40.1229 32.2184 38.0371 32.2184C35.9513 32.2184 33.886 32.6292 31.959 33.4274C30.032 34.2256 28.2811 35.3955 26.8063 36.8704C25.3314 38.3452 24.1615 40.0961 23.3633 42.0231C22.5651 43.9501 22.1543 46.0154 22.1543 48.1012Z" fill="#AE9AA4"/>
<path d="M38.0375 42.2601L32.8125 33.2054H43.2625L38.0375 42.2601Z" fill="white"/>
<path d="M38.0375 32.441C39.4477 32.441 40.8207 32.634 42.127 32.9828H33.9555C35.2543 32.6266 36.6273 32.441 38.0375 32.441ZM39.7074 38.9203L38.0375 41.8074L36.3676 38.9203H39.7074ZM35.6477 37.666L33.1984 33.4207H38.0969L35.6477 37.666ZM38.1934 33.4281H42.884L40.5387 37.4879L38.1934 33.4281ZM38.0375 63.7687C29.3984 63.7687 22.3773 56.7402 22.3773 48.1086C22.3773 41.3621 26.6672 35.5953 32.6641 33.3984L35.3879 38.1187L34.9203 38.9277H35.8555L38.0375 42.7055L40.2195 38.9277H41.3625L40.791 37.9406L43.4109 33.3984C49.4078 35.5953 53.6977 41.3621 53.6977 48.1086C53.6977 56.7402 46.6766 63.7687 38.0375 63.7687ZM49.4301 36.7086C47.7602 35.0387 45.7934 33.7844 43.6484 32.9902L43.6559 32.9754H43.6187C41.8598 32.3297 39.9746 31.9883 38.0449 31.9883C36.1152 31.9883 34.2301 32.3297 32.4711 32.9754H32.434L32.4414 32.9902C30.2965 33.7844 28.3223 35.0387 26.6598 36.7086C23.6168 39.7516 21.9395 43.7965 21.9395 48.1012C21.9395 52.4059 23.6168 56.4508 26.6598 59.4937C29.7027 62.5367 33.7477 64.2141 38.0523 64.2141C42.357 64.2141 46.402 62.5367 49.4449 59.4937C52.4879 56.4508 54.1652 52.4059 54.1652 48.1012C54.1652 43.7965 52.473 39.7516 49.4301 36.7086Z" fill="#843A5F"/>
<path d="M27.5273 12.9586V27.3348C27.5273 30.5633 30.1695 33.2055 33.398 33.2055H42.8832C46.1117 33.2055 48.7539 30.5633 48.7539 27.3348V12.9586H27.5273Z" fill="#E6D8DF"/>
<path d="M42.8832 33.4281H33.398C30.0359 33.4281 27.3047 30.6969 27.3047 27.3348V12.9586H27.75V27.3348C27.75 30.452 30.2809 32.9828 33.398 32.9828H42.8832C46.0004 32.9828 48.5313 30.452 48.5313 27.3348V12.9586H48.9766V27.3348C48.9766 30.6895 46.2453 33.4281 42.8832 33.4281Z" fill="#843A5F"/>
<path d="M27.1191 19.0519C27.1191 20.3885 27.6501 21.6703 28.5952 22.6153C29.5402 23.5604 30.822 24.0914 32.1586 24.0914C33.4951 24.0914 34.7769 23.5604 35.722 22.6153C36.6671 21.6703 37.198 20.3885 37.198 19.0519C37.198 17.7154 36.6671 16.4336 35.722 15.4885C34.7769 14.5434 33.4951 14.0125 32.1586 14.0125C30.822 14.0125 29.5402 14.5434 28.5952 15.4885C27.6501 16.4336 27.1191 17.7154 27.1191 19.0519Z" fill="white"/>
<path d="M32.1586 24.314C29.2566 24.314 26.8965 21.9539 26.8965 19.0519C26.8965 16.15 29.2566 13.7898 32.1586 13.7898C35.0605 13.7898 37.4207 16.15 37.4207 19.0519C37.4207 21.9539 35.0605 24.314 32.1586 24.314ZM32.1586 14.2351C29.5016 14.2351 27.3418 16.3949 27.3418 19.0519C27.3418 21.7089 29.5016 23.8687 32.1586 23.8687C34.8156 23.8687 36.9754 21.7089 36.9754 19.0519C36.9754 16.3949 34.8156 14.2351 32.1586 14.2351Z" fill="#843A5F"/>
<path d="M39.0391 19.0519C39.0391 19.7137 39.1694 20.369 39.4227 20.9804C39.6759 21.5918 40.0471 22.1474 40.5151 22.6153C40.983 23.0833 41.5386 23.4545 42.15 23.7078C42.7614 23.961 43.4167 24.0914 44.0785 24.0914C44.7403 24.0914 45.3956 23.961 46.007 23.7078C46.6184 23.4545 47.174 23.0833 47.6419 22.6153C48.1099 22.1474 48.4811 21.5918 48.7344 20.9804C48.9876 20.369 49.118 19.7137 49.118 19.0519C49.118 18.3901 48.9876 17.7348 48.7344 17.1234C48.4811 16.512 48.1099 15.9564 47.6419 15.4885C47.174 15.0205 46.6184 14.6493 46.007 14.3961C45.3956 14.1428 44.7403 14.0125 44.0785 14.0125C43.4167 14.0125 42.7614 14.1428 42.15 14.3961C41.5386 14.6493 40.983 15.0205 40.5151 15.4885C40.0471 15.9564 39.6759 16.512 39.4227 17.1234C39.1694 17.7348 39.0391 18.3901 39.0391 19.0519Z" fill="white"/>
<path d="M44.0785 24.314C41.1766 24.314 38.8164 21.9539 38.8164 19.0519C38.8164 16.15 41.1766 13.7898 44.0785 13.7898C46.9805 13.7898 49.3406 16.15 49.3406 19.0519C49.348 21.9539 46.9805 24.314 44.0785 24.314ZM44.0785 14.2351C41.4215 14.2351 39.2617 16.3949 39.2617 19.0519C39.2617 21.7089 41.4215 23.8687 44.0785 23.8687C46.7355 23.8687 48.8953 21.7089 48.8953 19.0519C48.8953 16.3949 46.7355 14.2351 44.0785 14.2351Z" fill="#843A5F"/>
<path d="M39.5807 20.143H39.1354C39.1354 19.5938 38.6901 19.1484 38.1408 19.1484C37.5916 19.1484 37.1463 19.5938 37.1463 20.143H36.701C36.701 19.3488 37.3467 18.7031 38.1408 18.7031C38.935 18.7031 39.5807 19.3488 39.5807 20.143ZM38.126 29.9398C36.4115 29.9398 34.6748 29.5242 34.6748 28.7301H35.1201C35.1201 28.9898 36.1815 29.4945 38.126 29.4945C40.0705 29.4945 41.1318 28.9898 41.1318 28.7301H41.5772C41.5772 29.5242 39.8404 29.9398 38.126 29.9398ZM49.5186 10.6875C49.4592 10.5316 49.3479 10.4203 49.2068 10.3609C49.1104 10.3238 49.0361 10.1902 48.9322 10.0195C48.5166 9.33672 47.8264 8.19375 43.9299 8.60195C43.4252 8.13438 40.6123 5.72227 37.6584 6.56836C37.2279 6.51641 34.3037 6.22695 32.4557 7.7707C32.1811 7.86719 30.3701 8.45352 29.3088 7.7707C28.8486 7.47383 28.5815 6.96914 28.5295 6.25664L28.4998 5.9375L28.2104 6.07109C28.1361 6.1082 26.3994 6.91719 25.9912 8.66133C25.7166 9.86367 26.1397 11.1848 27.2604 12.5949C27.2158 12.7062 27.201 12.8473 27.2678 13.0031C27.4236 13.3445 27.9432 13.5523 28.9006 13.6637C30.1104 13.8047 31.9881 13.775 34.4893 13.5746C34.7639 13.634 36.5303 13.9902 38.549 13.9902C39.076 13.9902 39.6252 13.968 40.167 13.9012C40.5307 13.9309 45.1619 14.2648 48.8135 13.2258L48.91 13.1961L48.9545 13.107C49.0361 12.9289 49.7783 11.3703 49.5186 10.6875Z" fill="#843A5F"/>
<path d="M55.6719 67.8656H20.4551C19.9652 67.8656 19.5645 67.4648 19.5645 66.975V39.1058C19.5645 38.616 19.9652 38.2152 20.4551 38.2152H55.6719C56.1617 38.2152 56.5625 38.616 56.5625 39.1058V66.9824C56.5625 67.4648 56.1617 67.8656 55.6719 67.8656Z" fill="white"/>
<path d="M55.6719 68.0883H20.4551C19.8391 68.0883 19.3418 67.591 19.3418 66.975V39.1058C19.3418 38.4898 19.8391 37.9926 20.4551 37.9926H55.6719C56.2879 37.9926 56.7852 38.4898 56.7852 39.1058V66.9824C56.7852 67.591 56.2879 68.0883 55.6719 68.0883ZM20.4551 38.4379C20.084 38.4379 19.7871 38.7347 19.7871 39.1058V66.9824C19.7871 67.3535 20.084 67.6504 20.4551 67.6504H55.6719C56.043 67.6504 56.3398 67.3535 56.3398 66.9824V39.1058C56.3398 38.7347 56.043 38.4379 55.6719 38.4379H20.4551Z" fill="#843A5F"/>
<path d="M21.3604 55.011C20.403 56.3469 18.8444 56.3469 17.887 55.011C16.9296 53.675 16.9296 51.5153 17.887 50.1868C18.8444 48.8508 20.403 48.8508 21.3604 50.1868C22.3179 51.5153 22.3179 53.675 21.3604 55.011Z" fill="#E6D8DF"/>
<path d="M19.623 56.2356C18.8957 56.2356 18.2129 55.8497 17.7082 55.1446C16.6988 53.7418 16.6988 51.4559 17.7082 50.0532C18.2129 49.3481 18.8957 48.9622 19.623 48.9622C20.3504 48.9622 21.0332 49.3481 21.5379 50.0532C22.5473 51.4559 22.5473 53.7418 21.5379 55.1446C21.0332 55.8497 20.3504 56.2356 19.623 56.2356ZM19.623 49.4075C19.0441 49.4075 18.4875 49.7266 18.0645 50.3129C17.159 51.5747 17.159 53.6231 18.0645 54.8774C18.4875 55.4637 19.0367 55.7829 19.623 55.7829C20.202 55.7829 20.7586 55.4637 21.1816 54.8774C22.0871 53.6157 22.0871 51.5672 21.1816 50.3129C20.7586 49.7266 20.2094 49.4075 19.623 49.4075Z" fill="#843A5F"/>
<path d="M58.336 55.011C57.3786 56.3469 55.82 56.3469 54.8626 55.011C53.9052 53.675 53.9052 51.5153 54.8626 50.1868C55.82 48.8508 57.3786 48.8508 58.336 50.1868C59.2935 51.5153 59.2935 53.675 58.336 55.011Z" fill="#E6D8DF"/>
<path d="M56.5996 56.2356C55.8723 56.2356 55.1895 55.8497 54.6848 55.1446C53.6754 53.7418 53.6754 51.4559 54.6848 50.0532C55.1895 49.3481 55.8723 48.9622 56.5996 48.9622C57.327 48.9622 58.0098 49.3481 58.5145 50.0532C59.5238 51.4559 59.5238 53.7418 58.5145 55.1446C58.0098 55.8497 57.327 56.2356 56.5996 56.2356ZM56.5996 49.4075C56.0207 49.4075 55.4641 49.7266 55.041 50.3129C54.1355 51.5747 54.1355 53.6231 55.041 54.8774C55.4641 55.4637 56.0133 55.7829 56.5996 55.7829C57.1785 55.7829 57.7352 55.4637 58.1582 54.8774C59.0637 53.6157 59.0637 51.5672 58.1582 50.3129C57.7352 49.7266 57.1785 49.4075 56.5996 49.4075Z" fill="#843A5F"/>
<path d="M30.2441 58.3434H26.9785C26.4887 58.3434 26.0879 58.7442 26.0879 59.234V64.6668C26.0879 65.1567 26.4887 65.5574 26.9785 65.5574H30.2441C30.734 65.5574 31.1348 65.1567 31.1348 64.6668V59.234C31.1348 58.7442 30.734 58.3434 30.2441 58.3434Z" fill="#E6D8DF"/>
<path d="M30.2441 65.7801H26.9785C26.3625 65.7801 25.8652 65.2828 25.8652 64.6668V59.234C25.8652 58.618 26.3625 58.1207 26.9785 58.1207H30.2441C30.8602 58.1207 31.3574 58.618 31.3574 59.234V64.6668C31.3574 65.2754 30.8602 65.7801 30.2441 65.7801ZM26.9785 58.566C26.6074 58.566 26.3105 58.8629 26.3105 59.234V64.6668C26.3105 65.0379 26.6074 65.3348 26.9785 65.3348H30.2441C30.6152 65.3348 30.9121 65.0379 30.9121 64.6668V59.234C30.9121 58.8629 30.6152 58.566 30.2441 58.566H26.9785Z" fill="#843A5F"/>
<path d="M49.1777 40.3082H45.9121C45.4223 40.3082 45.0215 40.709 45.0215 41.1989V64.6668C45.0215 65.1567 45.4223 65.5574 45.9121 65.5574H49.1777C49.6676 65.5574 50.0684 65.1567 50.0684 64.6668V41.1989C50.0684 40.709 49.6676 40.3082 49.1777 40.3082Z" fill="#E6D8DF"/>
<path d="M49.1777 65.7801H45.9121C45.2961 65.7801 44.7988 65.2828 44.7988 64.6668V41.1989C44.7988 40.5828 45.2961 40.0856 45.9121 40.0856H49.1777C49.7937 40.0856 50.291 40.5828 50.291 41.1989V64.6668C50.291 65.2754 49.7937 65.7801 49.1777 65.7801ZM45.9121 40.5309C45.541 40.5309 45.2441 40.8278 45.2441 41.1989V64.6668C45.2441 65.0379 45.541 65.3348 45.9121 65.3348H49.1777C49.5488 65.3348 49.8457 65.0379 49.8457 64.6668V41.1989C49.8457 40.8278 49.5488 40.5309 49.1777 40.5309H45.9121Z" fill="#843A5F"/>
<path d="M39.7148 51.1293H36.4492C35.9594 51.1293 35.5586 51.5301 35.5586 52.0199V64.6668C35.5586 65.1566 35.9594 65.5574 36.4492 65.5574H39.7148C40.2047 65.5574 40.6055 65.1566 40.6055 64.6668V52.0199C40.6055 51.5301 40.2047 51.1293 39.7148 51.1293Z" fill="#E6D8DF"/>
<path d="M39.7148 65.7801H36.4492C35.8332 65.7801 35.3359 65.2828 35.3359 64.6668V52.0199C35.3359 51.4039 35.8332 50.9066 36.4492 50.9066H39.7148C40.3309 50.9066 40.8281 51.4039 40.8281 52.0199V64.6668C40.8281 65.2754 40.3234 65.7801 39.7148 65.7801ZM36.4418 51.3519C36.0707 51.3519 35.7738 51.6488 35.7738 52.0199V64.6668C35.7738 65.0379 36.0707 65.3347 36.4418 65.3347H39.7074C40.0785 65.3347 40.3754 65.0379 40.3754 64.6668V52.0199C40.3754 51.6488 40.0785 51.3519 39.7074 51.3519H36.4418Z" fill="#843A5F"/>
</svg>
