<svg width="197" height="30" viewBox="0 0 197 30" fill="none" xmlns="http://www.w3.org/2000/svg">
<path d="M10.608 23.384C7.42933 23.384 4.944 22.4987 3.152 20.728C1.36 18.9573 0.464 16.4293 0.464 13.144V0.599998H5.648V12.952C5.648 15.0853 6.08533 16.6213 6.96 17.56C7.83467 18.4987 9.06133 18.968 10.64 18.968C12.2187 18.968 13.4453 18.4987 14.32 17.56C15.1947 16.6213 15.632 15.0853 15.632 12.952V0.599998H20.752V13.144C20.752 16.4293 19.856 18.9573 18.064 20.728C16.272 22.4987 13.7867 23.384 10.608 23.384ZM23.0023 23L32.6343 9.72V13.496L23.4183 0.599998H29.3063L35.6743 9.592L33.2103 9.624L39.4823 0.599998H45.1143L35.9623 13.272V9.56L45.6583 23H39.6743L33.0823 13.496H35.4503L28.9543 23H23.0023ZM64.8285 23.384C63.0365 23.384 61.3192 23.1493 59.6765 22.68C58.0338 22.1893 56.7112 21.56 55.7085 20.792L57.4685 16.888C58.4285 17.5707 59.5592 18.136 60.8605 18.584C62.1832 19.0107 63.5165 19.224 64.8605 19.224C65.8845 19.224 66.7058 19.128 67.3245 18.936C67.9645 18.7227 68.4338 18.4347 68.7325 18.072C69.0312 17.7093 69.1805 17.2933 69.1805 16.824C69.1805 16.2267 68.9458 15.7573 68.4765 15.416C68.0072 15.0533 67.3885 14.7653 66.6205 14.552C65.8525 14.3173 64.9992 14.104 64.0605 13.912C63.1432 13.6987 62.2152 13.4427 61.2765 13.144C60.3592 12.8453 59.5165 12.4613 58.7485 11.992C57.9805 11.5227 57.3512 10.904 56.8605 10.136C56.3912 9.368 56.1565 8.38667 56.1565 7.192C56.1565 5.912 56.4978 4.74933 57.1805 3.704C57.8845 2.63733 58.9298 1.79467 60.3165 1.176C61.7245 0.535999 63.4845 0.216 65.5965 0.216C67.0045 0.216 68.3912 0.386666 69.7565 0.727999C71.1218 1.048 72.3272 1.53867 73.3725 2.2L71.7725 6.136C70.7272 5.53867 69.6818 5.10133 68.6365 4.824C67.5912 4.52533 66.5672 4.376 65.5645 4.376C64.5618 4.376 63.7405 4.49333 63.1005 4.728C62.4605 4.96267 62.0018 5.272 61.7245 5.656C61.4472 6.01867 61.3085 6.44533 61.3085 6.936C61.3085 7.512 61.5432 7.98133 62.0125 8.344C62.4818 8.68533 63.1005 8.96267 63.8685 9.176C64.6365 9.38933 65.4792 9.60267 66.3965 9.816C67.3352 10.0293 68.2632 10.2747 69.1805 10.552C70.1192 10.8293 70.9725 11.2027 71.7405 11.672C72.5085 12.1413 73.1272 12.76 73.5965 13.528C74.0872 14.296 74.3325 15.2667 74.3325 16.44C74.3325 17.6987 73.9805 18.8507 73.2765 19.896C72.5725 20.9413 71.5165 21.784 70.1085 22.424C68.7218 23.064 66.9618 23.384 64.8285 23.384ZM84.5628 23.256C82.5361 23.256 80.9574 22.744 79.8268 21.72C78.6961 20.6747 78.1308 19.128 78.1308 17.08V1.976H83.1228V17.016C83.1228 17.7413 83.3148 18.3067 83.6988 18.712C84.0828 19.096 84.6054 19.288 85.2668 19.288C86.0561 19.288 86.7281 19.0747 87.2828 18.648L88.6268 22.168C88.1148 22.5307 87.4961 22.808 86.7708 23C86.0668 23.1707 85.3308 23.256 84.5628 23.256ZM75.4748 10.008V6.168H87.4108V10.008H75.4748ZM91.429 23V5.784H96.197V10.648L95.525 9.24C96.037 8.024 96.8583 7.10667 97.989 6.488C99.1197 5.848 100.496 5.528 102.117 5.528V10.136C101.904 10.1147 101.712 10.104 101.541 10.104C101.37 10.0827 101.189 10.072 100.997 10.072C99.6317 10.072 98.5223 10.4667 97.669 11.256C96.837 12.024 96.421 13.2293 96.421 14.872V23H91.429ZM114.52 23V19.64L114.2 18.904V12.888C114.2 11.8213 113.87 10.9893 113.208 10.392C112.568 9.79467 111.576 9.496 110.232 9.496C109.315 9.496 108.408 9.64533 107.512 9.944C106.638 10.2213 105.891 10.6053 105.272 11.096L103.48 7.608C104.419 6.94667 105.55 6.43467 106.872 6.072C108.195 5.70933 109.539 5.528 110.904 5.528C113.528 5.528 115.566 6.14667 117.016 7.384C118.467 8.62133 119.192 10.552 119.192 13.176V23H114.52ZM109.272 23.256C107.928 23.256 106.776 23.032 105.816 22.584C104.856 22.1147 104.12 21.4853 103.608 20.696C103.096 19.9067 102.84 19.0213 102.84 18.04C102.84 17.016 103.086 16.12 103.576 15.352C104.088 14.584 104.888 13.9867 105.976 13.56C107.064 13.112 108.483 12.888 110.232 12.888H114.808V15.8H110.776C109.603 15.8 108.792 15.992 108.344 16.376C107.918 16.76 107.704 17.24 107.704 17.816C107.704 18.456 107.95 18.968 108.44 19.352C108.952 19.7147 109.646 19.896 110.52 19.896C111.352 19.896 112.099 19.704 112.76 19.32C113.422 18.9147 113.902 18.328 114.2 17.56L114.968 19.864C114.606 20.9733 113.944 21.816 112.984 22.392C112.024 22.968 110.787 23.256 109.272 23.256ZM130.75 23.256C128.724 23.256 127.145 22.744 126.014 21.72C124.884 20.6747 124.318 19.128 124.318 17.08V1.976H129.31V17.016C129.31 17.7413 129.502 18.3067 129.886 18.712C130.27 19.096 130.793 19.288 131.454 19.288C132.244 19.288 132.916 19.0747 133.47 18.648L134.814 22.168C134.302 22.5307 133.684 22.808 132.958 23C132.254 23.1707 131.518 23.256 130.75 23.256ZM121.662 10.008V6.168H133.598V10.008H121.662ZM145.629 23.256C143.667 23.256 141.939 22.872 140.445 22.104C138.973 21.336 137.832 20.2907 137.021 18.968C136.211 17.624 135.805 16.0987 135.805 14.392C135.805 12.664 136.2 11.1387 136.989 9.816C137.8 8.472 138.899 7.42667 140.285 6.68C141.672 5.912 143.24 5.528 144.989 5.528C146.675 5.528 148.189 5.89067 149.533 6.616C150.899 7.32 151.976 8.344 152.765 9.688C153.555 11.0107 153.949 12.6 153.949 14.456C153.949 14.648 153.939 14.872 153.917 15.128C153.896 15.3627 153.875 15.5867 153.853 15.8H139.869V12.888H151.229L149.309 13.752C149.309 12.856 149.128 12.0773 148.765 11.416C148.403 10.7547 147.901 10.2427 147.261 9.88C146.621 9.496 145.875 9.304 145.021 9.304C144.168 9.304 143.411 9.496 142.749 9.88C142.109 10.2427 141.608 10.7653 141.245 11.448C140.883 12.1093 140.701 12.8987 140.701 13.816V14.584C140.701 15.5227 140.904 16.3547 141.309 17.08C141.736 17.784 142.323 18.328 143.069 18.712C143.837 19.0747 144.733 19.256 145.757 19.256C146.675 19.256 147.475 19.1173 148.157 18.84C148.861 18.5627 149.501 18.1467 150.077 17.592L152.733 20.472C151.944 21.368 150.952 22.0613 149.757 22.552C148.563 23.0213 147.187 23.256 145.629 23.256ZM165.369 29.464C163.747 29.464 162.179 29.2613 160.665 28.856C159.171 28.472 157.923 27.8853 156.921 27.096L158.905 23.512C159.63 24.1093 160.547 24.5787 161.657 24.92C162.787 25.2827 163.897 25.464 164.985 25.464C166.755 25.464 168.035 25.0693 168.825 24.28C169.635 23.4907 170.041 22.3173 170.041 20.76V18.168L170.361 13.848L170.297 9.496V5.784H175.033V20.12C175.033 23.32 174.201 25.6773 172.537 27.192C170.873 28.7067 168.483 29.464 165.369 29.464ZM164.601 22.168C163.001 22.168 161.55 21.8267 160.249 21.144C158.969 20.44 157.934 19.4693 157.145 18.232C156.377 16.9733 155.993 15.512 155.993 13.848C155.993 12.1627 156.377 10.7013 157.145 9.464C157.934 8.20533 158.969 7.23467 160.249 6.552C161.55 5.86933 163.001 5.528 164.601 5.528C166.051 5.528 167.331 5.82667 168.441 6.424C169.55 7 170.414 7.90667 171.033 9.144C171.651 10.36 171.961 11.928 171.961 13.848C171.961 15.7467 171.651 17.3147 171.033 18.552C170.414 19.768 169.55 20.6747 168.441 21.272C167.331 21.8693 166.051 22.168 164.601 22.168ZM165.593 18.072C166.467 18.072 167.246 17.9013 167.929 17.56C168.611 17.1973 169.145 16.696 169.529 16.056C169.913 15.416 170.105 14.68 170.105 13.848C170.105 12.9947 169.913 12.2587 169.529 11.64C169.145 11 168.611 10.5093 167.929 10.168C167.246 9.80533 166.467 9.624 165.593 9.624C164.718 9.624 163.939 9.80533 163.257 10.168C162.574 10.5093 162.03 11 161.625 11.64C161.241 12.2587 161.049 12.9947 161.049 13.848C161.049 14.68 161.241 15.416 161.625 16.056C162.03 16.696 162.574 17.1973 163.257 17.56C163.939 17.9013 164.718 18.072 165.593 18.072ZM181.855 29.464C180.959 29.464 180.074 29.3253 179.199 29.048C178.324 28.7707 177.61 28.3867 177.055 27.896L178.879 24.344C179.263 24.6853 179.7 24.952 180.191 25.144C180.703 25.336 181.204 25.432 181.695 25.432C182.399 25.432 182.954 25.2613 183.359 24.92C183.786 24.6 184.17 24.056 184.511 23.288L185.407 21.176L185.791 20.632L191.967 5.784H196.767L188.991 24.056C188.436 25.4427 187.796 26.5307 187.071 27.32C186.367 28.1093 185.578 28.664 184.703 28.984C183.85 29.304 182.9 29.464 181.855 29.464ZM184.799 23.672L177.119 5.784H182.271L188.223 20.184L184.799 23.672Z" fill="#DD4242"/>
</svg>
