<svg width="52" height="52" viewBox="0 0 52 52" fill="none" xmlns="http://www.w3.org/2000/svg">
<path d="M3.30957 33.5638V38.8668C3.30957 40.0996 4.30892 41.1 5.54273 41.1H46.4592C47.6921 41.1 48.6923 40.1006 48.6923 38.8668V33.5638H3.30957ZM15.4256 9.7969V16.1929C15.4256 16.5843 15.1079 16.902 14.7165 16.902H8.32046C7.92906 16.902 7.61139 16.5843 7.61139 16.1929V9.7969C7.61139 9.4055 7.92906 9.08783 8.32046 9.08783H14.7165C15.1079 9.08783 15.4256 9.4055 15.4256 9.7969ZM15.2961 22.2911V28.6871C15.2961 29.0785 14.9784 29.3962 14.5869 29.3962H8.19093C7.79953 29.3962 7.48186 29.0785 7.48186 28.6871V22.2911C7.48186 21.8996 7.79953 21.582 8.19093 21.582H14.5869C14.9784 21.582 15.2961 21.8996 15.2961 22.2911Z" fill="black"/>
<path d="M46.4583 3.47955H5.54094C3.91852 3.47955 2.59961 4.79941 2.59961 6.42181C2.59961 18.6276 2.59961 27.2142 2.59961 38.867C2.59961 40.4893 3.91946 41.8083 5.54094 41.8083H18.6118V47.1009H15.9494C15.558 47.1009 15.2403 47.4186 15.2403 47.81C15.2403 48.2014 15.558 48.5191 15.9494 48.5191C21.9011 48.5191 30.0963 48.5191 36.0498 48.5191C36.4412 48.5191 36.7589 48.2014 36.7589 47.81C36.7589 47.4186 36.4412 47.1009 36.0498 47.1009H33.3874V41.8083H46.4583C48.0807 41.8083 49.3996 40.4884 49.3996 38.867C49.3996 27.3816 49.3996 18.7307 49.3996 6.42181C49.3996 4.79941 48.0797 3.47955 46.4583 3.47955ZM5.54094 4.89773H46.4573C47.2979 4.89773 47.9805 5.58128 47.9805 6.42181V32.8548H4.01779V6.42181C4.01779 5.58128 4.70136 4.89773 5.54094 4.89773ZM31.9683 47.1009H20.0309V41.8083H31.9692L31.9683 47.1009ZM47.9814 38.867C47.9814 39.7075 47.2979 40.3901 46.4583 40.3901H32.6773H19.3219H5.54094C4.70041 40.3901 4.01779 39.7065 4.01779 38.867V34.273H47.9814V38.867Z" fill="white"/>
<path d="M24.7711 38.0416H27.2293C27.6207 38.0416 27.9384 37.7239 27.9384 37.3325C27.9384 36.9411 27.6207 36.6234 27.2293 36.6234H24.7711C24.3797 36.6234 24.062 36.9411 24.062 37.3325C24.062 37.7239 24.3797 38.0416 24.7711 38.0416ZM8.32019 17.6122H14.7171C15.4981 17.6122 16.1344 16.9759 16.1344 16.194V9.7971C16.1344 9.01518 15.4981 8.37891 14.7171 8.37891H8.32019C7.53832 8.37891 6.90199 9.01518 6.90199 9.7971V16.194C6.90199 16.9759 7.53832 17.6122 8.32019 17.6122ZM8.32019 9.79804L14.7162 9.7971L14.7171 16.194H8.32019V9.79804ZM8.19066 30.1064H14.5876C15.3685 30.1064 16.0049 29.4701 16.0049 28.6882V22.2912C16.0049 21.5094 15.3685 20.8731 14.5876 20.8731H8.19066C7.40878 20.8731 6.77246 21.5094 6.77246 22.2912V28.6882C6.77246 29.4701 7.40878 30.1064 8.19066 30.1064ZM8.19066 22.2922L14.5867 22.2912L14.5876 28.6882H8.19066V22.2922ZM20.7198 11.1254H41.6049C41.9963 11.1254 42.314 10.8078 42.314 10.4164C42.314 10.0249 41.9963 9.70725 41.6049 9.70725H20.7198C20.3284 9.70725 20.0107 10.0249 20.0107 10.4164C20.0107 10.8078 20.3284 11.1254 20.7198 11.1254ZM20.7198 15.4216H33.7349C34.1264 15.4216 34.4441 15.1039 34.4441 14.7125C34.4441 14.3211 34.1264 14.0034 33.7349 14.0034H20.7198C20.3284 14.0034 20.0107 14.3211 20.0107 14.7125C20.0107 15.1039 20.3284 15.4216 20.7198 15.4216ZM20.7198 24.0517H41.6049C41.9963 24.0517 42.314 23.734 42.314 23.3426C42.314 22.9512 41.9963 22.6335 41.6049 22.6335H20.7198C20.3284 22.6335 20.0107 22.9512 20.0107 23.3426C20.0107 23.734 20.3284 24.0517 20.7198 24.0517ZM20.7198 28.3469H33.7349C34.1264 28.3469 34.4441 28.0292 34.4441 27.6378C34.4441 27.2464 34.1264 26.9287 33.7349 26.9287H20.7198C20.3284 26.9287 20.0107 27.2464 20.0107 27.6378C20.0107 28.0292 20.3284 28.3469 20.7198 28.3469Z" fill="white"/>
<path d="M12.3645 11.7804L11.1515 12.636L10.8471 12.1926C10.6259 11.8712 10.1843 11.788 9.86101 12.0102C9.53762 12.2324 9.45635 12.6739 9.67849 12.9963L10.3895 14.0306C10.4963 14.1866 10.6618 14.2934 10.849 14.3266C10.8906 14.3341 10.9322 14.3379 10.9738 14.3379C11.1184 14.3379 11.2621 14.2934 11.3832 14.2084L13.1833 12.9386C13.5029 12.7126 13.5795 12.2702 13.3544 11.9506C13.1275 11.632 12.6869 11.5554 12.3645 11.7804ZM12.235 24.2746L11.0211 25.1312L10.7166 24.6878C10.4954 24.3654 10.0539 24.2831 9.73049 24.5062C9.40715 24.7275 9.32588 25.17 9.54802 25.4924L10.26 26.5267C10.3677 26.6827 10.5332 26.7895 10.7195 26.8226C10.7611 26.8302 10.8027 26.834 10.8443 26.834C10.9889 26.834 11.1326 26.7895 11.2536 26.7044L13.0538 25.4347C13.3733 25.2087 13.4499 24.7662 13.2249 24.4467C12.9989 24.1252 12.5584 24.0496 12.235 24.2746Z" fill="white"/>
</svg>
